<svg id="placa-de-carro" xmlns="http://www.w3.org/2000/svg" width="62.517" height="37.341" viewBox="0 0 62.517 37.341">
  <path id="Caminho_19" data-name="Caminho 19" d="M7.209,140.432H45.991a.958.958,0,0,0,0-1.917H7.209a5.3,5.3,0,0,1-5.292-5.292V110.3a5.3,5.3,0,0,1,5.292-5.292h5.913a.958.958,0,1,0,0-1.917H7.209A7.217,7.217,0,0,0,0,110.3v22.924A7.217,7.217,0,0,0,7.209,140.432Z" transform="translate(0 -103.091)" fill="#ecedf2"/>
  <path id="Caminho_20" data-name="Caminho 20" d="M170.319,103.091H131.965a.958.958,0,1,0,0,1.917h38.353a5.3,5.3,0,0,1,5.292,5.292v22.924a5.3,5.3,0,0,1-5.292,5.292h-5.484a.958.958,0,0,0,0,1.917h5.484a7.217,7.217,0,0,0,7.209-7.209V110.3A7.217,7.217,0,0,0,170.319,103.091Z" transform="translate(-115.011 -103.091)" fill="#ecedf2"/>
  <path id="Caminho_21" data-name="Caminho 21" d="M36.624,142.452v22.924a2.74,2.74,0,0,0,2.737,2.737h48.1a2.74,2.74,0,0,0,2.737-2.737V142.452a2.74,2.74,0,0,0-2.737-2.737h-48.1A2.74,2.74,0,0,0,36.624,142.452ZM88.28,165.376a.821.821,0,0,1-.82.82h-48.1a.821.821,0,0,1-.82-.82v-3.652H88.28Zm0-5.568H38.541V148.02H88.28Zm0-17.356V146.1H38.541v-3.652a.821.821,0,0,1,.82-.82h48.1A.821.821,0,0,1,88.28,142.452Z" transform="translate(-32.152 -135.243)" fill="#ecedf2"/>
  <path id="Caminho_22" data-name="Caminho 22" d="M70.585,225.363h1.9l.267,1.785h1.56l-1.574-9.838H70.472L68.9,227.148h1.42Zm.942-6.311.745,4.975h-1.49Z" transform="translate(-60.485 -203.364)" fill="#ecedf2"/>
  <path id="Caminho_23" data-name="Caminho 23" d="M128.236,224.811v-.8a1.989,1.989,0,0,0-1.153-2.108,1.932,1.932,0,0,0,1-1.982v-.351c0-1.518-.689-2.263-2.291-2.263h-2.333v9.838h2.431A2.091,2.091,0,0,0,128.236,224.811Zm-3.233-6.1h.745c.548,0,.787.309.787,1.012v.548c0,.787-.351,1.04-.928,1.04H125v-2.6Zm0,4.006h.689c.7,0,1,.281,1,1.195v.857c0,.731-.281.97-.8.97H125v-3.022Z" transform="translate(-108.383 -203.36)" fill="#ecedf2"/>
  <path id="Caminho_24" data-name="Caminho 24" d="M175.832,226.452c1.518,0,2.3-.9,2.3-2.474v-1.307h-1.462v1.405c0,.7-.309.956-.8.956s-.8-.253-.8-.956v-5.313c0-.7.309-.97.8-.97s.8.267.8.97v1.054h1.462v-.956c0-1.574-.787-2.474-2.3-2.474s-2.3.9-2.3,2.474v5.116C173.527,225.553,174.314,226.452,175.832,226.452Z" transform="translate(-152.339 -202.555)" fill="#ecedf2"/>
  <rect id="Retângulo_6" data-name="Retângulo 6" width="2.811" height="1.405" transform="translate(29.916 18.162)" fill="#ecedf2"/>
  <path id="Caminho_25" data-name="Caminho 25" d="M312.266,227.147h1.546v-9.838h-1.04a1.532,1.532,0,0,1-1.7,1.237v1.1h1.195v7.505Z" transform="translate(-273.088 -203.363)" fill="#ecedf2"/>
  <path id="Caminho_26" data-name="Caminho 26" d="M357.67,224.933h-2.923a1.068,1.068,0,0,1-.014-.211c0-1.616,3.078-2.769,3.078-5.861,0-1.574-.787-2.474-2.3-2.474s-2.3.9-2.3,2.474v.956h1.462v-1.054c0-.7.309-.97.8-.97s.8.239.8,1.124c0,2.839-3.064,3.317-3.064,6.212v1.209h4.469v-1.405Z" transform="translate(-310.074 -202.554)" fill="#ecedf2"/>
  <path id="Caminho_27" data-name="Caminho 27" d="M404.77,226.452c1.518,0,2.3-.9,2.3-2.474v-.773a2.007,2.007,0,0,0-1.082-2.066,1.917,1.917,0,0,0,1.082-2.024v-.253c0-1.574-.787-2.474-2.3-2.474s-2.3.9-2.3,2.474v.534h1.462v-.633c0-.7.309-.97.8-.97s.8.239.8,1.124v.548c0,.787-.351,1.04-.928,1.04H404v1.405h.52c.7,0,1.012.337,1.012,1.251v.773c0,.871-.309,1.11-.8,1.11s-.8-.267-.8-.97v-.914h-1.462v.815C402.465,225.553,403.252,226.452,404.77,226.452Z" transform="translate(-353.323 -202.555)" fill="#ecedf2"/>
  <circle id="Elipse_2" data-name="Elipse 2" cx="1.05" cy="1.05" r="1.05" transform="translate(14.694 7.591)" fill="#ecedf2"/>
  <circle id="Elipse_3" data-name="Elipse 3" cx="1.05" cy="1.05" r="1.05" transform="translate(14.694 27.671)" fill="#ecedf2"/>
  <circle id="Elipse_4" data-name="Elipse 4" cx="1.05" cy="1.05" r="1.05" transform="translate(45.724 7.591)" fill="#ecedf2"/>
  <circle id="Elipse_5" data-name="Elipse 5" cx="1.05" cy="1.05" r="1.05" transform="translate(45.724 27.671)" fill="#ecedf2"/>
</svg>
