<svg xmlns="http://www.w3.org/2000/svg" width="152.235" height="131.31" viewBox="0 0 152.235 131.31">
  <path id="Caminho_45" data-name="Caminho 45" d="M9.18,6.45V4.5H1.245V15h2.43V11.175h4.86V9.225H3.675V6.45ZM14.3,15.12a4.163,4.163,0,1,0,0-8.31,4.164,4.164,0,1,0,0,8.31Zm0-1.92a2.048,2.048,0,0,1-2.07-2.235,2.069,2.069,0,1,1,4.125,0A2.037,2.037,0,0,1,14.3,13.2Zm10.56-.24a1.577,1.577,0,0,1-.945.3.941.941,0,0,1-1-1.065V8.91h2.01V7.11h-2.01V5.145h-2.34V7.11H19.32v1.8h1.245v3.315c0,1.92,1.11,2.895,3.015,2.895a3.344,3.344,0,0,0,1.9-.51Zm5.535,2.16a4.163,4.163,0,1,0,0-8.31,4.164,4.164,0,1,0,0,8.31Zm0-1.92a2.048,2.048,0,0,1-2.07-2.235,2.069,2.069,0,1,1,4.125,0A2.037,2.037,0,0,1,30.39,13.2ZM45.18,8.415a3.544,3.544,0,0,0-2.6.93c.075-2.01,1.2-3.045,2.955-3.045a3.458,3.458,0,0,1,1.965.525l.9-1.785a5.669,5.669,0,0,0-2.925-.72c-3.165,0-5.355,2.025-5.355,5.655,0,3.39,1.8,5.2,4.695,5.2,2.22,0,3.975-1.35,3.975-3.5A3.331,3.331,0,0,0,45.18,8.415Zm-.495,4.95c-1.17,0-1.845-.66-1.845-1.56a1.642,1.642,0,0,1,1.815-1.575,1.579,1.579,0,1,1,.03,3.135Zm6.375-3.63a1.432,1.432,0,0,0,1.455-1.47,1.455,1.455,0,0,0-2.91,0A1.432,1.432,0,0,0,51.06,9.735Zm0,5.385a1.432,1.432,0,0,0,1.455-1.47,1.455,1.455,0,0,0-2.91,0A1.432,1.432,0,0,0,51.06,15.12Zm12.51-.03a5.28,5.28,0,0,0,5.5-5.34,5.515,5.515,0,0,0-11.025,0A5.284,5.284,0,0,0,63.57,15.09Zm0-.99a4.27,4.27,0,0,1-4.425-4.35,4.41,4.41,0,0,1,8.82,0A4.254,4.254,0,0,1,63.57,14.1ZM77.475,3.87V8.61a3.446,3.446,0,0,0-3-1.56,3.817,3.817,0,0,0-3.93,4.005,3.829,3.829,0,0,0,3.93,4.02A3.418,3.418,0,0,0,77.52,13.44V15h1.02V3.87Zm-2.91,10.26a2.889,2.889,0,0,1-2.94-3.075,2.936,2.936,0,1,1,5.865,0A2.886,2.886,0,0,1,74.565,14.13ZM84.72,4.65,86.205,5.9h.99L85.26,4.035H84.18L82.245,5.9h.99Zm.015,2.4a3.881,3.881,0,0,0-4.02,4.005,4.013,4.013,0,1,0,8.025,0A3.869,3.869,0,0,0,84.735,7.05Zm0,7.08a2.889,2.889,0,0,1-2.94-3.075,2.936,2.936,0,1,1,5.865,0A2.877,2.877,0,0,1,84.735,14.13Zm16.02-7.08a3.436,3.436,0,0,0-3.12,1.665A2.834,2.834,0,0,0,94.83,7.05a3.191,3.191,0,0,0-2.9,1.5V7.11h-1.02V15H91.98V10.86a2.543,2.543,0,0,1,2.64-2.85c1.44,0,2.28.855,2.28,2.52V15h1.065V10.86a2.536,2.536,0,0,1,2.64-2.85c1.425,0,2.265.855,2.265,2.52V15h1.065V10.425C103.935,8.16,102.675,7.05,100.755,7.05Zm12.99,4.005A3.76,3.76,0,0,0,109.92,7.05a3.8,3.8,0,0,0-3.855,4.005,4.171,4.171,0,0,0,7.185,2.73l-.6-.69a3.11,3.11,0,0,1-2.415,1.035,2.921,2.921,0,0,1-3.105-2.745h6.6C113.73,11.265,113.745,11.145,113.745,11.055Zm-3.825-3.09a2.744,2.744,0,0,1,2.805,2.625h-5.6A2.741,2.741,0,0,1,109.92,7.965Zm9.78,5.79a1.762,1.762,0,0,1-1.17.4,1.264,1.264,0,0,1-1.365-1.44V8.01h2.4v-.9h-2.4V5.385H116.1V7.11h-1.41v.9h1.41v4.77a2.09,2.09,0,0,0,2.31,2.3,2.536,2.536,0,0,0,1.665-.555Zm3.33-5.1V7.11h-1.02V15h1.065V10.98c0-1.86,1-2.91,2.655-2.91.075,0,.165.015.255.015V7.05A2.975,2.975,0,0,0,123.03,8.655Zm8.025,6.42a3.881,3.881,0,0,0,4-4.02,4.013,4.013,0,0,0-8.025,0A3.893,3.893,0,0,0,131.055,15.075Zm0-.945a2.889,2.889,0,0,1-2.94-3.075,2.936,2.936,0,1,1,5.865,0A2.877,2.877,0,0,1,131.055,14.13ZM9.18,36.45V34.5H1.245V45h2.43V41.175h4.86v-1.95H3.675V36.45ZM14.3,45.12a4.163,4.163,0,1,0,0-8.31,4.164,4.164,0,1,0,0,8.31Zm0-1.92a2.243,2.243,0,1,1,2.055-2.235A2.048,2.048,0,0,1,14.3,43.2Zm10.56-.24a1.577,1.577,0,0,1-.945.3.941.941,0,0,1-1-1.065V38.91h2.01v-1.8h-2.01V35.145h-2.34V37.11H19.32v1.8h1.245v3.315c0,1.92,1.11,2.9,3.015,2.9a3.344,3.344,0,0,0,1.9-.51Zm5.535,2.16a4.163,4.163,0,1,0,0-8.31,4.164,4.164,0,1,0,0,8.31Zm0-1.92a2.243,2.243,0,1,1,2.055-2.235A2.048,2.048,0,0,1,30.39,43.2Zm9.54-8.7v3.69h2.16V36.48h3.48L41.805,45h2.64l3.9-8.925V34.5Zm10.575,5.235a1.432,1.432,0,0,0,1.455-1.47,1.455,1.455,0,0,0-2.91,0A1.432,1.432,0,0,0,50.505,39.735Zm0,5.385a1.432,1.432,0,0,0,1.455-1.47,1.455,1.455,0,0,0-2.91,0A1.432,1.432,0,0,0,50.505,45.12Zm9.03-1.08v-3.9h5.43v-.945h-5.43V35.46h6.09V34.5h-7.2V45H65.85v-.96ZM70.23,45.075c2.055,0,3.255-.885,3.255-2.25,0-3.03-5.115-1.425-5.115-3.555,0-.75.63-1.305,2.055-1.305a4.044,4.044,0,0,1,2.325.675l.465-.855a5.347,5.347,0,0,0-2.79-.735c-2.01,0-3.12.96-3.12,2.25,0,3.12,5.115,1.5,5.115,3.555,0,.78-.615,1.29-2.115,1.29A4.766,4.766,0,0,1,67.5,43.26l-.48.84A5.271,5.271,0,0,0,70.23,45.075Zm9-1.32a1.762,1.762,0,0,1-1.17.4,1.264,1.264,0,0,1-1.365-1.44V38.01h2.4v-.9h-2.4V35.385H75.63V37.11H74.22v.9h1.41v4.77a2.09,2.09,0,0,0,2.31,2.3A2.536,2.536,0,0,0,79.6,44.52Zm8.91-2.7a3.76,3.76,0,0,0-3.825-4.005,3.8,3.8,0,0,0-3.855,4.005,4.171,4.171,0,0,0,7.185,2.73l-.6-.69A3.11,3.11,0,0,1,84.63,44.13a2.921,2.921,0,0,1-3.105-2.745h6.6C88.125,41.265,88.14,41.145,88.14,41.055Zm-3.825-3.09A2.744,2.744,0,0,1,87.12,40.59h-5.6A2.741,2.741,0,0,1,84.315,37.965ZM94.38,37.05a3.437,3.437,0,0,0-3.045,1.62V37.11h-1.02v10.8H91.38v-4.4a3.446,3.446,0,0,0,3,1.56,4.013,4.013,0,0,0,0-8.025Zm-.075,7.08a3.078,3.078,0,1,1,2.94-3.075A2.889,2.889,0,0,1,94.305,44.13Zm13.065-3.075a3.76,3.76,0,0,0-3.825-4.005,3.8,3.8,0,0,0-3.855,4.005,4.171,4.171,0,0,0,7.185,2.73l-.6-.69a3.11,3.11,0,0,1-2.415,1.035,2.921,2.921,0,0,1-3.105-2.745h6.6C107.355,41.265,107.37,41.145,107.37,41.055Zm-3.825-3.09a2.744,2.744,0,0,1,2.805,2.625h-5.6A2.741,2.741,0,0,1,103.545,37.965ZM9.18,66.45V64.5H1.245V75h2.43V71.175h4.86v-1.95H3.675V66.45ZM14.3,75.12a4.163,4.163,0,1,0,0-8.31,4.164,4.164,0,1,0,0,8.31Zm0-1.92a2.243,2.243,0,1,1,2.055-2.235A2.048,2.048,0,0,1,14.3,73.2Zm10.56-.24a1.577,1.577,0,0,1-.945.3.941.941,0,0,1-1-1.065V68.91h2.01v-1.8h-2.01V65.145h-2.34V67.11H19.32v1.8h1.245v3.315c0,1.92,1.11,2.9,3.015,2.9a3.344,3.344,0,0,0,1.9-.51Zm5.535,2.16a4.163,4.163,0,1,0,0-8.31,4.164,4.164,0,1,0,0,8.31Zm0-1.92a2.243,2.243,0,1,1,2.055-2.235A2.048,2.048,0,0,1,30.39,73.2Zm16.92-3.72a2.439,2.439,0,0,0,1.23-2.16c0-1.845-1.65-3-4.065-3-2.385,0-4.035,1.155-4.035,3a2.425,2.425,0,0,0,1.215,2.16,2.67,2.67,0,0,0-1.59,2.475c0,1.98,1.755,3.225,4.41,3.225s4.44-1.245,4.44-3.225A2.66,2.66,0,0,0,47.31,69.48Zm-2.835-3.375c.99,0,1.65.495,1.65,1.32,0,.795-.645,1.29-1.65,1.29s-1.62-.495-1.62-1.29C42.855,66.6,43.5,66.105,44.475,66.105Zm0,7.29c-1.2,0-1.95-.585-1.95-1.515s.75-1.5,1.95-1.5,1.98.57,1.98,1.5S45.69,73.395,44.475,73.395Zm6.93-3.66a1.432,1.432,0,0,0,1.455-1.47,1.455,1.455,0,0,0-2.91,0A1.432,1.432,0,0,0,51.4,69.735Zm0,5.385a1.432,1.432,0,0,0,1.455-1.47,1.455,1.455,0,0,0-2.91,0A1.432,1.432,0,0,0,51.4,75.12ZM61.05,75h1.11V65.46h3.69V64.5H57.36v.96h3.69Zm12.405-3.945a3.76,3.76,0,0,0-3.825-4,3.8,3.8,0,0,0-3.855,4,4.171,4.171,0,0,0,7.185,2.73l-.6-.69a3.11,3.11,0,0,1-2.415,1.035,2.921,2.921,0,0,1-3.105-2.745h6.6C73.44,71.265,73.455,71.145,73.455,71.055Zm-3.825-3.09a2.744,2.744,0,0,1,2.805,2.625h-5.6A2.741,2.741,0,0,1,69.63,67.965Zm9.78,5.79a1.762,1.762,0,0,1-1.17.405,1.264,1.264,0,0,1-1.365-1.44V68.01h2.4v-.9h-2.4V65.385H75.81V67.11H74.4v.9h1.41v4.77a2.09,2.09,0,0,0,2.31,2.295,2.536,2.536,0,0,0,1.665-.555Zm5.25,1.32a4.013,4.013,0,1,0-4.02-4.02A3.881,3.881,0,0,0,84.66,75.075Zm0-.945a3.079,3.079,0,1,1,2.925-3.075A2.889,2.889,0,0,1,84.66,74.13ZM9.18,96.45V94.5H1.245V105h2.43v-3.825h4.86v-1.95H3.675V96.45Zm5.115,8.67a4.163,4.163,0,1,0,0-8.31,4.164,4.164,0,1,0,0,8.31Zm0-1.92a2.243,2.243,0,1,1,2.055-2.235A2.048,2.048,0,0,1,14.3,103.2Zm10.56-.24a1.577,1.577,0,0,1-.945.3.941.941,0,0,1-1-1.065V98.91h2.01v-1.8h-2.01V95.145h-2.34V97.11H19.32v1.8h1.245v3.315c0,1.92,1.11,2.9,3.015,2.9a3.344,3.344,0,0,0,1.9-.51Zm5.535,2.16a4.163,4.163,0,1,0,0-8.31,4.164,4.164,0,1,0,0,8.31Zm0-1.92a2.243,2.243,0,1,1,2.055-2.235A2.048,2.048,0,0,1,30.39,103.2Zm13.425-8.88c-2.22,0-3.975,1.35-3.975,3.5a3.331,3.331,0,0,0,3.615,3.27,3.588,3.588,0,0,0,2.61-.945c-.075,2.025-1.215,3.06-2.955,3.06a3.4,3.4,0,0,1-1.965-.525l-.9,1.785a5.613,5.613,0,0,0,2.91.72c3.18,0,5.355-2.025,5.355-5.655C48.51,96.135,46.725,94.32,43.815,94.32ZM44,99.27a1.579,1.579,0,1,1-.03-3.135c1.155,0,1.83.66,1.83,1.56A1.629,1.629,0,0,1,44,99.27Zm7.065.465a1.432,1.432,0,0,0,1.455-1.47,1.455,1.455,0,0,0-2.91,0A1.432,1.432,0,0,0,51.06,99.735Zm0,5.385a1.432,1.432,0,0,0,1.455-1.47,1.455,1.455,0,0,0-2.91,0A1.432,1.432,0,0,0,51.06,105.12ZM62.91,94.5H58.98V105h1.11v-3.315h2.82c2.67,0,4.29-1.35,4.29-3.585S65.58,94.5,62.91,94.5Zm-.03,6.21H60.09V95.46h2.79c2.1,0,3.21.96,3.21,2.64C66.09,99.75,64.98,100.71,62.88,100.71ZM73.2,97.05a3.316,3.316,0,0,0-3,1.515V97.11H69.18V105h1.065v-4.14A2.587,2.587,0,0,1,73,98.01a2.2,2.2,0,0,1,2.37,2.52V105H76.44v-4.575A3.02,3.02,0,0,0,73.2,97.05Zm13.05,4a3.76,3.76,0,0,0-3.825-4,3.8,3.8,0,0,0-3.855,4,4.171,4.171,0,0,0,7.185,2.73l-.6-.69a3.11,3.11,0,0,1-2.415,1.035,2.921,2.921,0,0,1-3.105-2.745h6.6C86.235,101.265,86.25,101.145,86.25,101.055Zm-3.825-3.09a2.744,2.744,0,0,1,2.805,2.625h-5.6A2.741,2.741,0,0,1,82.425,97.965ZM94.47,97.11v4.14a2.566,2.566,0,0,1-2.685,2.865c-1.5,0-2.37-.855-2.37-2.535V97.11H88.35v4.575a3.056,3.056,0,0,0,3.33,3.39,3.138,3.138,0,0,0,2.835-1.515V105h1.02V97.11ZM9.18,126.45V124.5H1.245V135h2.43v-3.825h4.86v-1.95H3.675V126.45Zm5.115,8.67a4.163,4.163,0,1,0,0-8.31,4.164,4.164,0,1,0,0,8.31Zm0-1.92a2.243,2.243,0,1,1,2.055-2.235A2.048,2.048,0,0,1,14.3,133.2Zm10.56-.24a1.577,1.577,0,0,1-.945.3.941.941,0,0,1-1-1.065V128.91h2.01v-1.8h-2.01v-1.965h-2.34v1.965H19.32v1.8h1.245v3.315c0,1.92,1.11,2.895,3.015,2.895a3.344,3.344,0,0,0,1.9-.51Zm5.535,2.16a4.163,4.163,0,1,0,0-8.31,4.164,4.164,0,1,0,0,8.31Zm0-1.92a2.243,2.243,0,1,1,2.055-2.235A2.048,2.048,0,0,1,30.39,133.2Zm9.255-8.7v1.95h2.1V135h2.43V124.5ZM50.5,135.18c2.6,0,4.5-1.965,4.5-5.43s-1.9-5.43-4.5-5.43c-2.58,0-4.5,1.965-4.5,5.43S47.925,135.18,50.5,135.18Zm0-2.055c-1.2,0-2.04-.99-2.04-3.375s.84-3.375,2.04-3.375,2.055.99,2.055,3.375S51.72,133.125,50.5,133.125Zm7.065-3.39a1.432,1.432,0,0,0,1.455-1.47,1.455,1.455,0,0,0-2.91,0A1.432,1.432,0,0,0,57.57,129.735Zm0,5.385a1.432,1.432,0,0,0,1.455-1.47,1.455,1.455,0,0,0-2.91,0A1.432,1.432,0,0,0,57.57,135.12Zm7.605-.12H69.45c3.36,0,5.625-2.16,5.625-5.25s-2.265-5.25-5.625-5.25H65.175Zm1.11-.96v-8.58h3.1c2.79,0,4.59,1.77,4.59,4.29s-1.8,4.29-4.59,4.29Zm14.28,1.035a4.013,4.013,0,1,0-4.02-4.02A3.881,3.881,0,0,0,80.565,135.075Zm0-.945a3.079,3.079,0,1,1,2.925-3.075A2.889,2.889,0,0,1,80.565,134.13Zm9.45.945a3.478,3.478,0,0,0,3.09-1.56l-.795-.54a2.669,2.669,0,0,1-2.3,1.155,3.076,3.076,0,0,1,0-6.15,2.682,2.682,0,0,1,2.3,1.17l.795-.54a3.446,3.446,0,0,0-3.09-1.56,4.013,4.013,0,1,0,0,8.025Zm11.22-7.965v4.14a2.566,2.566,0,0,1-2.685,2.865c-1.5,0-2.37-.855-2.37-2.535v-4.47H95.115v4.575a3.056,3.056,0,0,0,3.33,3.39,3.138,3.138,0,0,0,2.835-1.515V135h1.02v-7.89Zm13.89-.06a3.436,3.436,0,0,0-3.12,1.665,2.834,2.834,0,0,0-2.805-1.665,3.191,3.191,0,0,0-2.9,1.5v-1.44h-1.02V135h1.065v-4.14a2.543,2.543,0,0,1,2.64-2.85c1.44,0,2.28.855,2.28,2.52V135h1.065v-4.14a2.536,2.536,0,0,1,2.64-2.85c1.425,0,2.265.855,2.265,2.52V135h1.065v-4.575C118.305,128.16,117.045,127.05,115.125,127.05Zm12.99,4a3.76,3.76,0,0,0-3.825-4,3.8,3.8,0,0,0-3.855,4,4.171,4.171,0,0,0,7.185,2.73l-.6-.69a3.11,3.11,0,0,1-2.415,1.035,2.921,2.921,0,0,1-3.105-2.745h6.6C128.1,131.265,128.115,131.145,128.115,131.055Zm-3.825-3.09a2.744,2.744,0,0,1,2.805,2.625h-5.6A2.741,2.741,0,0,1,124.29,127.965Zm10.02-.915a3.316,3.316,0,0,0-3,1.515V127.11h-1.02V135h1.065v-4.14a2.587,2.587,0,0,1,2.76-2.85,2.2,2.2,0,0,1,2.37,2.52V135h1.065v-4.575A3.02,3.02,0,0,0,134.31,127.05Zm9.915,6.705a1.762,1.762,0,0,1-1.17.4,1.264,1.264,0,0,1-1.365-1.44v-4.71h2.4v-.9h-2.4v-1.725h-1.065v1.725h-1.41v.9h1.41v4.77a2.09,2.09,0,0,0,2.31,2.295,2.536,2.536,0,0,0,1.665-.555Zm5.25,1.32a4.013,4.013,0,1,0-4.02-4.02A3.881,3.881,0,0,0,149.475,135.075Zm0-.945a3.079,3.079,0,1,1,2.925-3.075A2.889,2.889,0,0,1,149.475,134.13Z" transform="translate(-1.245 -3.87)" fill="#707070"/>
</svg>
