<svg xmlns="http://www.w3.org/2000/svg" width="175.056" height="287.104" viewBox="0 0 175.056 287.104">
  <g id="Grupo_78" data-name="Grupo 78" transform="translate(-1231.014 -266.612)">
    <path id="Caminho_38" data-name="Caminho 38" d="M1.162,14H5.614c3.206,0,5.4-1.932,5.4-4.9s-2.2-4.9-5.4-4.9H1.162ZM3.43,12.138V6.062H5.5A2.925,2.925,0,0,1,8.722,9.1,2.925,2.925,0,0,1,5.5,12.138Zm16.52-1.876a3.729,3.729,0,0,0-3.92-3.906,3.835,3.835,0,0,0-4.018,3.878c0,2.24,1.694,3.878,4.3,3.878a3.945,3.945,0,0,0,3.108-1.218l-1.162-1.26a2.553,2.553,0,0,1-1.89.728A2.008,2.008,0,0,1,14.21,10.85h5.7C19.922,10.668,19.95,10.43,19.95,10.262ZM16.044,8.008a1.79,1.79,0,0,1,1.848,1.568h-3.71A1.783,1.783,0,0,1,16.044,8.008ZM25.676,12.1a1.472,1.472,0,0,1-.882.28.878.878,0,0,1-.938-.994V8.316h1.876V6.636H23.856V4.8H21.672V6.636H20.51v1.68h1.162V11.41a2.483,2.483,0,0,0,2.814,2.7,3.121,3.121,0,0,0,1.778-.476Zm4.858-5.74a5.79,5.79,0,0,0-3.248.91l.784,1.526a3.622,3.622,0,0,1,2.17-.7c1.176,0,1.736.546,1.736,1.484H30.24c-2.3,0-3.234.924-3.234,2.254,0,1.3,1.05,2.282,2.814,2.282a2.472,2.472,0,0,0,2.3-1.05V14H34.16V9.7C34.16,7.42,32.83,6.356,30.534,6.356Zm-.168,6.286c-.77,0-1.232-.364-1.232-.91,0-.5.322-.882,1.344-.882h1.5v.77A1.609,1.609,0,0,1,30.366,12.642ZM36.134,14h2.184V3.612H36.134Zm8.792-7.644a3.311,3.311,0,0,0-2.394.9V3.612H40.348V14h2.184V10.276c0-1.386.756-2.03,1.806-2.03.966,0,1.526.56,1.526,1.778V14h2.184V9.688C48.048,7.392,46.7,6.356,44.926,6.356Zm12.558,3.906a3.729,3.729,0,0,0-3.92-3.906,3.835,3.835,0,0,0-4.018,3.878c0,2.24,1.694,3.878,4.3,3.878a3.945,3.945,0,0,0,3.108-1.218l-1.162-1.26a2.553,2.553,0,0,1-1.89.728,2.008,2.008,0,0,1-2.156-1.512h5.7C57.456,10.668,57.484,10.43,57.484,10.262ZM53.578,8.008a1.79,1.79,0,0,1,1.848,1.568h-3.71A1.783,1.783,0,0,1,53.578,8.008Zm7.9,6.1c2.254,0,3.556-.994,3.556-2.394,0-2.968-4.55-1.722-4.55-3.01,0-.392.42-.7,1.4-.7a4.325,4.325,0,0,1,2.17.56l.728-1.554a6.193,6.193,0,0,0-2.9-.658c-2.2,0-3.486,1.008-3.486,2.436,0,3.01,4.55,1.75,4.55,2.982,0,.42-.378.686-1.386.686a5.153,5.153,0,0,1-2.618-.728L58.212,13.3A6.466,6.466,0,0,0,61.474,14.112ZM10.752,49.846a2.128,2.128,0,0,1-1.6.728,1.81,1.81,0,0,1-1.386-.686,4.932,4.932,0,0,0,3.5-4.788,5.071,5.071,0,0,0-5.362-5.068A5.071,5.071,0,0,0,.546,45.1a5,5,0,0,0,4.578,5.026c1.512,1.6,2.534,2.128,3.99,2.128a3.32,3.32,0,0,0,2.646-1.2ZM2.842,45.1a2.989,2.989,0,0,1,3.066-3.136,3.137,3.137,0,0,1,0,6.272A2.989,2.989,0,0,1,2.842,45.1Zm15.386-2.632v3.724c0,1.386-.728,2.03-1.736,2.03-.966,0-1.526-.56-1.526-1.82V42.468H12.782v4.256c0,2.324,1.33,3.388,3.22,3.388A3.047,3.047,0,0,0,18.34,49.1V50h2.072V42.468Zm7.252-.112a5.79,5.79,0,0,0-3.248.91l.784,1.526a3.622,3.622,0,0,1,2.17-.7c1.176,0,1.736.546,1.736,1.484H25.186c-2.3,0-3.234.924-3.234,2.254,0,1.3,1.05,2.282,2.814,2.282a2.472,2.472,0,0,0,2.3-1.05V50h2.044V45.7C29.106,43.42,27.776,42.356,25.48,42.356Zm-.168,6.286c-.77,0-1.232-.364-1.232-.91,0-.5.322-.882,1.344-.882h1.5v.77A1.609,1.609,0,0,1,25.312,48.642Zm10.346-6.286a3.3,3.3,0,0,0-2.492.994v-.882H31.08V50h2.184V46.276c0-1.386.756-2.03,1.806-2.03.966,0,1.526.56,1.526,1.778V50H38.78V45.688C38.78,43.392,37.436,42.356,35.658,42.356Zm9.366,5.74a1.472,1.472,0,0,1-.882.28.878.878,0,0,1-.938-.994V44.316H45.08v-1.68H43.2V40.8H41.02v1.834H39.858v1.68H41.02V47.41a2.483,2.483,0,0,0,2.814,2.7,3.121,3.121,0,0,0,1.778-.476Zm2.912-6.678a1.256,1.256,0,0,0,1.358-1.26,1.226,1.226,0,0,0-1.358-1.176,1.225,1.225,0,1,0,0,2.436ZM46.844,50h2.184V42.468H46.844Zm9.7-10.388v3.654a2.894,2.894,0,0,0-2.254-.91c-2.128,0-3.766,3.878-3.766,3.878s1.638,3.878,3.766,3.878a2.9,2.9,0,0,0,2.352-.98V50H58.73V39.612ZM54.67,48.32a2.093,2.093,0,1,1,1.918-2.086A1.911,1.911,0,0,1,54.67,48.32Zm9.114-5.964a5.79,5.79,0,0,0-3.248.91l.784,1.526a3.622,3.622,0,0,1,2.17-.7c1.176,0,1.736.546,1.736,1.484H63.49c-2.3,0-3.234.924-3.234,2.254,0,1.3,1.05,2.282,2.814,2.282a2.472,2.472,0,0,0,2.3-1.05V50H67.41V45.7C67.41,43.42,66.08,42.356,63.784,42.356Zm-.168,6.286c-.77,0-1.232-.364-1.232-.91,0-.5.322-.882,1.344-.882h1.5v.77A1.609,1.609,0,0,1,63.616,48.642Zm11.34-9.03v3.654a2.894,2.894,0,0,0-2.254-.91,3.88,3.88,0,0,0,0,7.756,2.9,2.9,0,0,0,2.352-.98V50H77.14V39.612ZM73.08,48.32A2.093,2.093,0,1,1,75,46.234,1.911,1.911,0,0,1,73.08,48.32Zm13.454-2.058a3.729,3.729,0,0,0-3.92-3.906A3.835,3.835,0,0,0,78.6,46.234c0,2.24,1.694,3.878,4.3,3.878A3.945,3.945,0,0,0,86,48.894l-1.162-1.26a2.553,2.553,0,0,1-1.89.728,2.008,2.008,0,0,1-2.156-1.512h5.7C86.506,46.668,86.534,46.43,86.534,46.262Zm-3.906-2.254a1.79,1.79,0,0,1,1.848,1.568h-3.71A1.783,1.783,0,0,1,82.628,44.008Zm6.188,1.078a1.336,1.336,0,0,0,1.358-1.372,1.358,1.358,0,0,0-2.716,0A1.336,1.336,0,0,0,88.816,45.086Zm0,5.026a1.336,1.336,0,0,0,1.358-1.372,1.358,1.358,0,0,0-2.716,0A1.336,1.336,0,0,0,88.816,50.112ZM105.532,40.2l-4.214,7.266L97.062,40.2h-.854V50H97.2V42.2l3.85,6.552h.49l3.85-6.594V50h.994V40.2Zm4.34.826a.714.714,0,0,0,.728-.728.706.706,0,0,0-.728-.686.707.707,0,1,0,0,1.414Zm-.5,8.974h.994V42.636h-.994Zm7.518-7.42a3.1,3.1,0,0,0-2.8,1.414V42.636h-.952V50h.994V46.136a2.414,2.414,0,0,1,2.576-2.66,2.056,2.056,0,0,1,2.212,2.352V50h.994V45.73A2.819,2.819,0,0,0,116.886,42.58Zm11.788-2.464a3.053,3.053,0,0,0-3.346,3.01c0,1.792,1.358,2.94,3.3,2.94a3.131,3.131,0,0,0,3-1.68c.028.294.042.574.042.8,0,2.66-1.358,4.018-3.472,4.018a3.435,3.435,0,0,1-1.9-.462l-.406.812a4.5,4.5,0,0,0,2.324.532c2.66,0,4.48-1.736,4.48-5.068C132.692,41.922,131.278,40.116,128.674,40.116Zm.112,5.1c-1.512,0-2.464-.826-2.464-2.114a2.144,2.144,0,0,1,2.394-2.128c1.694,0,2.59,1.022,2.59,2.1A2.268,2.268,0,0,1,128.786,45.212ZM145.4,41.1v-.9h-6.72V50h1.036V45.842h5.068v-.9H139.72V41.1Zm4.69,8.974a3.745,3.745,0,1,0-3.752-3.752A3.622,3.622,0,0,0,150.094,50.07Zm0-.882a2.874,2.874,0,1,1,2.73-2.87A2.7,2.7,0,0,1,150.094,49.188Zm9.3-.35a1.645,1.645,0,0,1-1.092.378,1.179,1.179,0,0,1-1.274-1.344v-4.4h2.24v-.84h-2.24v-1.61h-.994v1.61h-1.316v.84h1.316v4.452a1.951,1.951,0,0,0,2.156,2.142,2.367,2.367,0,0,0,1.554-.518Zm4.9,1.232a3.745,3.745,0,1,0-3.752-3.752A3.622,3.622,0,0,0,164.29,50.07Zm0-.882a2.874,2.874,0,1,1,2.73-2.87A2.7,2.7,0,0,1,164.29,49.188Zm7.742.882c1.918,0,3.038-.826,3.038-2.1,0-2.828-4.774-1.33-4.774-3.318,0-.7.588-1.218,1.918-1.218a3.775,3.775,0,0,1,2.17.63l.434-.8a4.99,4.99,0,0,0-2.6-.686c-1.876,0-2.912.9-2.912,2.1,0,2.912,4.774,1.4,4.774,3.318,0,.728-.574,1.2-1.974,1.2a4.448,4.448,0,0,1-2.618-.826l-.448.784A4.92,4.92,0,0,0,172.032,50.07ZM7.812,64.318a3.509,3.509,0,0,0-3.57-3.738,3.547,3.547,0,0,0-3.6,3.738A3.647,3.647,0,0,0,4.508,68.07a3.625,3.625,0,0,0,2.842-1.2l-.56-.644a2.9,2.9,0,0,1-2.254.966,2.726,2.726,0,0,1-2.9-2.562H7.8C7.8,64.514,7.812,64.4,7.812,64.318Zm-3.57-2.884a2.561,2.561,0,0,1,2.618,2.45H1.638A2.558,2.558,0,0,1,4.242,61.434Zm13.02-.854a3.1,3.1,0,0,0-2.8,1.414V60.636H13.51V68H14.5V64.136a2.414,2.414,0,0,1,2.576-2.66,2.056,2.056,0,0,1,2.212,2.352V68h.994V63.73A2.819,2.819,0,0,0,17.262,60.58Zm8.764,7.49a3.745,3.745,0,1,0-3.752-3.752A3.622,3.622,0,0,0,26.026,68.07Zm0-.882a2.874,2.874,0,1,1,2.73-2.87A2.7,2.7,0,0,1,26.026,67.188ZM45,58.2l-4.214,7.266L36.526,58.2h-.854V68h.994V60.2l3.85,6.552h.49l3.85-6.594V68h.994V58.2Zm8.778-.434h-1.33L50.526,59.5h.98ZM51.408,60.58a4.676,4.676,0,0,0-3,.994l.448.742a3.751,3.751,0,0,1,2.45-.868c1.372,0,2.086.686,2.086,1.946v.448H51.058c-2.114,0-2.842.952-2.842,2.086,0,1.274,1.022,2.142,2.688,2.142a2.765,2.765,0,0,0,2.534-1.218V68h.952V63.436C54.39,61.532,53.312,60.58,51.408,60.58Zm-.35,6.706c-1.176,0-1.862-.532-1.862-1.386,0-.756.462-1.316,1.89-1.316H53.4v1.2A2.356,2.356,0,0,1,51.058,67.286ZM62.916,68l-2.94-3.78,2.772-3.584H61.656L59.444,63.52l-2.212-2.884h-1.12l2.772,3.584L55.972,68h1.12l2.352-3.08L61.782,68Zm4.06-9.8v.9h2.31V68h1.008V58.2Zm9.716,3.934a3.131,3.131,0,0,0-3,1.68c-.028-.294-.042-.574-.042-.8,0-2.66,1.358-4.018,3.472-4.018a3.435,3.435,0,0,1,1.9.462l.406-.812a4.5,4.5,0,0,0-2.324-.532c-2.66,0-4.48,1.736-4.48,5.068,0,3.094,1.414,4.9,4.018,4.9A3.053,3.053,0,0,0,80,65.074C80,63.282,78.638,62.134,76.692,62.134Zm-.084,5.1c-1.694,0-2.59-1.022-2.59-2.1a2.268,2.268,0,0,1,2.52-2.142c1.512,0,2.464.826,2.464,2.114A2.144,2.144,0,0,1,76.608,67.23ZM92.414,59.1v-.9h-6.72V68H86.73V63.842H91.8v-.9H86.73V59.1ZM97.1,68.07a3.745,3.745,0,1,0-3.752-3.752A3.622,3.622,0,0,0,97.1,68.07Zm0-.882a2.874,2.874,0,1,1,2.73-2.87A2.7,2.7,0,0,1,97.1,67.188Zm9.3-.35a1.645,1.645,0,0,1-1.092.378,1.179,1.179,0,0,1-1.274-1.344v-4.4h2.24v-.84h-2.24v-1.61h-.994v1.61h-1.316v.84h1.316v4.452A1.951,1.951,0,0,0,105.2,68.07a2.367,2.367,0,0,0,1.554-.518Zm4.9,1.232a3.745,3.745,0,1,0-3.752-3.752A3.622,3.622,0,0,0,111.3,68.07Zm0-.882a2.874,2.874,0,1,1,2.73-2.87A2.7,2.7,0,0,1,111.3,67.188Zm7.742.882c1.918,0,3.038-.826,3.038-2.1,0-2.828-4.774-1.33-4.774-3.318,0-.7.588-1.218,1.918-1.218a3.775,3.775,0,0,1,2.17.63l.434-.8a4.99,4.99,0,0,0-2.6-.686c-1.876,0-2.912.9-2.912,2.1,0,2.912,4.774,1.4,4.774,3.318,0,.728-.574,1.2-1.974,1.2a4.448,4.448,0,0,1-2.618-.826l-.448.784A4.92,4.92,0,0,0,119.042,68.07ZM8.568,78.02V76.2H1.162V86H3.43V82.43H7.966V80.61H3.43V78.02Zm4.774,8.092a3.886,3.886,0,1,0,0-7.756,3.887,3.887,0,1,0,0,7.756Zm0-1.792a2.093,2.093,0,1,1,1.918-2.086A1.911,1.911,0,0,1,13.342,84.32Zm7.672-4.858v-.994H18.928V86h2.184V82.444a1.851,1.851,0,0,1,2-2.1c.168,0,.308.014.49.028V78.356A3.04,3.04,0,0,0,21.014,79.462Zm13.538-1.106a3.387,3.387,0,0,0-2.716,1.232,2.811,2.811,0,0,0-2.478-1.232,3.05,3.05,0,0,0-2.366.98v-.868H24.906V86H27.09V82.22c0-1.344.686-1.974,1.652-1.974.91,0,1.428.56,1.428,1.778V86h2.184V82.22c0-1.344.686-1.974,1.666-1.974.882,0,1.428.56,1.428,1.778V86h2.184V81.688C37.632,79.392,36.344,78.356,34.552,78.356Zm8.078,0a5.79,5.79,0,0,0-3.248.91l.784,1.526a3.622,3.622,0,0,1,2.17-.7c1.176,0,1.736.546,1.736,1.484H42.336c-2.3,0-3.234.924-3.234,2.254,0,1.3,1.05,2.282,2.814,2.282a2.472,2.472,0,0,0,2.3-1.05V86h2.044V81.7C46.256,79.42,44.926,78.356,42.63,78.356Zm-.168,6.286c-.77,0-1.232-.364-1.232-.91,0-.5.322-.882,1.344-.882h1.5v.77A1.609,1.609,0,0,1,42.462,84.642ZM52.5,84.1a1.472,1.472,0,0,1-.882.28.878.878,0,0,1-.938-.994V80.316h1.876v-1.68H50.68V76.8H48.5v1.834H47.334v1.68H48.5V83.41a2.483,2.483,0,0,0,2.814,2.7,3.121,3.121,0,0,0,1.778-.476Zm5.166,2.016a3.887,3.887,0,1,0-4.144-3.878A3.866,3.866,0,0,0,57.666,86.112Zm0-1.792a2.093,2.093,0,1,1,1.918-2.086A1.911,1.911,0,0,1,57.666,84.32Zm6.412-3.234a1.336,1.336,0,0,0,1.358-1.372,1.358,1.358,0,0,0-2.716,0A1.336,1.336,0,0,0,64.078,81.086Zm0,5.026a1.336,1.336,0,0,0,1.358-1.372,1.358,1.358,0,0,0-2.716,0A1.336,1.336,0,0,0,64.078,86.112ZM75.138,76.2H71.47V86h1.036V82.906h2.632c2.492,0,4-1.26,4-3.346S77.63,76.2,75.138,76.2ZM75.11,82h-2.6V77.1h2.6c1.96,0,3,.9,3,2.464C78.106,81.1,77.07,82,75.11,82Zm13.44-5.8v7.952L82.236,76.2h-.854V86h1.036V78.048L88.718,86h.854V76.2Zm11.116,8.2a4.243,4.243,0,0,1-2.562.756,4.062,4.062,0,1,1,2.968-6.972l.644-.658a4.829,4.829,0,0,0-3.64-1.414,4.987,4.987,0,1,0-.014,9.968,5.408,5.408,0,0,0,3.6-1.246V81.1h-.994Zm10.388,1.666a3.745,3.745,0,1,0-3.752-3.752A3.622,3.622,0,0,0,110.054,86.07Zm0-.882a2.874,2.874,0,1,1,2.73-2.87A2.7,2.7,0,0,1,110.054,85.188Zm11.41-6.552V82.5a2.4,2.4,0,0,1-2.506,2.674,2.061,2.061,0,0,1-2.212-2.366V78.636h-.994v4.27a2.852,2.852,0,0,0,3.108,3.164,2.929,2.929,0,0,0,2.646-1.414V86h.952V78.636Zm8.708,7.448c1.876,0,2.856-1.022,2.856-3.094V76.2h-4.606v.9h3.584v5.936c0,1.442-.616,2.156-1.82,2.156a2.485,2.485,0,0,1-2.114-1.2l-.616.7A3.222,3.222,0,0,0,130.172,86.084ZM139.8,76.2h-3.668V86h1.036V82.906H139.8c2.492,0,4-1.26,4-3.346S142.3,76.2,139.8,76.2Zm-.028,5.8h-2.6V77.1h2.6c1.96,0,3,.9,3,2.464C142.772,81.1,141.736,82,139.776,82ZM153.09,84.4a4.243,4.243,0,0,1-2.562.756,4.062,4.062,0,1,1,2.968-6.972l.644-.658a4.829,4.829,0,0,0-3.64-1.414,4.987,4.987,0,1,0-.014,9.968,5.408,5.408,0,0,0,3.6-1.246V81.1h-.994ZM5.1,95.166l-.322-.6L3.024,95.6V93.612H2.38L2.394,95.6.644,94.564l-.336.6,1.75.98-1.75.98.336.588,1.75-1.022L2.38,98.68h.644V96.692l1.75,1.022.322-.588-1.736-.98ZM17.99,104h1.092L14.6,94.2H13.58L9.1,104h1.078l1.176-2.618h5.46Zm-6.258-3.458,2.352-5.264,2.352,5.264ZM27.958,96.58a3.208,3.208,0,0,0-2.842,1.512V96.636h-.952v10.08h.994v-4.1a3.216,3.216,0,0,0,2.8,1.456,3.746,3.746,0,0,0,0-7.49Zm-.07,6.608a2.873,2.873,0,1,1,2.744-2.87A2.7,2.7,0,0,1,27.888,103.188Zm6.72-5.11V96.636h-.952V104h.994v-3.752c0-1.736.938-2.716,2.478-2.716.07,0,.154.014.238.014V96.58A2.777,2.777,0,0,0,34.608,98.078Zm5.054-3.052a.714.714,0,0,0,.728-.728.706.706,0,0,0-.728-.686.707.707,0,1,0,0,1.414Zm-.5,8.974h.994V96.636h-.994Zm12.95-7.42A3.207,3.207,0,0,0,49.2,98.134a2.645,2.645,0,0,0-2.618-1.554,2.978,2.978,0,0,0-2.7,1.4V96.636h-.952V104h.994v-3.864a2.373,2.373,0,0,1,2.464-2.66c1.344,0,2.128.8,2.128,2.352V104H49.5v-3.864a2.367,2.367,0,0,1,2.464-2.66c1.33,0,2.114.8,2.114,2.352V104h.994V99.73C55.076,97.616,53.9,96.58,52.108,96.58Zm12.124,3.738a3.509,3.509,0,0,0-3.57-3.738,3.547,3.547,0,0,0-3.6,3.738,3.893,3.893,0,0,0,6.706,2.548l-.56-.644a2.9,2.9,0,0,1-2.254.966,2.726,2.726,0,0,1-2.9-2.562h6.16C64.218,100.514,64.232,100.4,64.232,100.318Zm-3.57-2.884a2.561,2.561,0,0,1,2.618,2.45H58.058A2.558,2.558,0,0,1,60.662,97.434Zm6.1-2.408a.714.714,0,0,0,.728-.728.706.706,0,0,0-.728-.686.707.707,0,1,0,0,1.414Zm-.5,8.974h.994V96.636h-.994Zm4.718-5.922V96.636h-.952V104h.994v-3.752c0-1.736.938-2.716,2.478-2.716.07,0,.154.014.238.014V96.58A2.777,2.777,0,0,0,70.98,98.078Zm7.112-1.5a4.676,4.676,0,0,0-3,.994l.448.742a3.751,3.751,0,0,1,2.45-.868c1.372,0,2.086.686,2.086,1.946v.448H77.742c-2.114,0-2.842.952-2.842,2.086,0,1.274,1.022,2.142,2.688,2.142a2.765,2.765,0,0,0,2.534-1.218V104h.952V99.436C81.074,97.532,80,96.58,78.092,96.58Zm-.35,6.706c-1.176,0-1.862-.532-1.862-1.386,0-.756.462-1.316,1.89-1.316h2.31v1.2A2.356,2.356,0,0,1,77.742,103.286Zm12.138-8.9a1.684,1.684,0,0,1,1.092.364L91.308,94a2.334,2.334,0,0,0-1.47-.462,2.028,2.028,0,0,0-2.226,2.184v.91H86.3v.84h1.316V104h.994V97.476h2.24v-.84H88.578v-.868C88.578,94.858,89.026,94.382,89.88,94.382Zm5.194,9.688a3.745,3.745,0,1,0-3.752-3.752A3.622,3.622,0,0,0,95.074,104.07Zm0-.882a2.874,2.874,0,1,1,2.73-2.87A2.7,2.7,0,0,1,95.074,103.188Zm9.3-.35a1.645,1.645,0,0,1-1.092.378A1.179,1.179,0,0,1,102,101.872v-4.4h2.24v-.84H102v-1.61h-.994v1.61H99.694v.84h1.316v4.452a1.951,1.951,0,0,0,2.156,2.142,2.367,2.367,0,0,0,1.554-.518Zm4.9,1.232a3.745,3.745,0,1,0-3.752-3.752A3.622,3.622,0,0,0,109.27,104.07Zm0-.882a2.874,2.874,0,1,1,2.73-2.87A2.7,2.7,0,0,1,109.27,103.188Zm9.94-8.162a.714.714,0,0,0,.728-.728.706.706,0,0,0-.728-.686.707.707,0,1,0,0,1.414Zm-.5,8.974h.994V96.636h-.994Zm7.518-7.42a3.1,3.1,0,0,0-2.8,1.414V96.636h-.952V104h.994v-3.864a2.414,2.414,0,0,1,2.576-2.66,2.056,2.056,0,0,1,2.212,2.352V104h.994V99.73A2.819,2.819,0,0,0,126.224,96.58Zm7.7,7.49c1.918,0,3.038-.826,3.038-2.1,0-2.828-4.774-1.33-4.774-3.318,0-.7.588-1.218,1.918-1.218a3.775,3.775,0,0,1,2.17.63l.434-.8a4.99,4.99,0,0,0-2.6-.686c-1.876,0-2.912.9-2.912,2.1,0,2.912,4.774,1.4,4.774,3.318,0,.728-.574,1.2-1.974,1.2a4.448,4.448,0,0,1-2.618-.826l-.448.784A4.92,4.92,0,0,0,133.924,104.07Zm11.3-3.752a3.509,3.509,0,0,0-3.57-3.738,3.547,3.547,0,0,0-3.6,3.738,3.893,3.893,0,0,0,6.706,2.548l-.56-.644a2.9,2.9,0,0,1-2.254.966,2.726,2.726,0,0,1-2.9-2.562h6.16C145.208,100.514,145.222,100.4,145.222,100.318Zm-3.57-2.884a2.561,2.561,0,0,1,2.618,2.45h-5.222A2.558,2.558,0,0,1,141.652,97.434Zm6.552.644V96.636h-.952V104h.994v-3.752c0-1.736.938-2.716,2.478-2.716.07,0,.154.014.238.014V96.58A2.777,2.777,0,0,0,148.2,98.078Zm5.054-3.052a.714.714,0,0,0,.728-.728.706.706,0,0,0-.728-.686.707.707,0,1,0,0,1.414Zm-.5,8.974h.994V96.636h-.994Zm9.492-10.388v4.424a3.216,3.216,0,0,0-2.8-1.456,3.746,3.746,0,0,0,0,7.49,3.19,3.19,0,0,0,2.842-1.526V104h.952V93.612Zm-2.716,9.576a2.874,2.874,0,1,1,2.73-2.87A2.7,2.7,0,0,1,159.53,103.188Zm9.058-6.608a4.676,4.676,0,0,0-3,.994l.448.742a3.751,3.751,0,0,1,2.45-.868c1.372,0,2.086.686,2.086,1.946v.448h-2.338c-2.114,0-2.842.952-2.842,2.086,0,1.274,1.022,2.142,2.688,2.142a2.765,2.765,0,0,0,2.534-1.218V104h.952V99.436C171.57,97.532,170.492,96.58,168.588,96.58Zm-.35,6.706c-1.176,0-1.862-.532-1.862-1.386,0-.756.462-1.316,1.89-1.316h2.31v1.2A2.356,2.356,0,0,1,168.238,103.286ZM3.36,122.07c1.918,0,3.038-.826,3.038-2.1,0-2.828-4.774-1.33-4.774-3.318,0-.7.588-1.218,1.918-1.218a3.775,3.775,0,0,1,2.17.63l.434-.8a4.99,4.99,0,0,0-2.6-.686c-1.876,0-2.912.9-2.912,2.1,0,2.912,4.774,1.4,4.774,3.318,0,.728-.574,1.2-1.974,1.2a4.448,4.448,0,0,1-2.618-.826l-.448.784A4.92,4.92,0,0,0,3.36,122.07Zm11.3-3.752a3.509,3.509,0,0,0-3.57-3.738,3.547,3.547,0,0,0-3.6,3.738,3.647,3.647,0,0,0,3.864,3.752,3.625,3.625,0,0,0,2.842-1.2l-.56-.644a2.9,2.9,0,0,1-2.254.966,2.726,2.726,0,0,1-2.9-2.562h6.16C14.644,118.514,14.658,118.4,14.658,118.318Zm-3.57-2.884a2.561,2.561,0,0,1,2.618,2.45H8.484A2.558,2.558,0,0,1,11.088,115.434Zm6.552.644v-1.442h-.952V122h.994v-3.752c0-1.736.938-2.716,2.478-2.716.07,0,.154.014.238.014v-.966A2.777,2.777,0,0,0,17.64,116.078Zm9.478-4.312h-1.33L23.87,113.5h.98Zm-2.366,2.814a4.676,4.676,0,0,0-3,.994l.448.742a3.751,3.751,0,0,1,2.45-.868c1.372,0,2.086.686,2.086,1.946v.448H24.4c-2.114,0-2.842.952-2.842,2.086,0,1.274,1.022,2.142,2.688,2.142a2.765,2.765,0,0,0,2.534-1.218V122h.952v-4.564C27.734,115.532,26.656,114.58,24.752,114.58Zm-.35,6.706c-1.176,0-1.862-.532-1.862-1.386,0-.756.462-1.316,1.89-1.316h2.31v1.2A2.356,2.356,0,0,1,24.4,121.286Zm12.712.784a3.745,3.745,0,1,0-3.752-3.752A3.622,3.622,0,0,0,37.114,122.07Zm0-.882a2.874,2.874,0,1,1,2.73-2.87A2.7,2.7,0,0,1,37.114,121.188Zm15.162-9.576v4.424a3.216,3.216,0,0,0-2.8-1.456,3.746,3.746,0,0,0,0,7.49,3.19,3.19,0,0,0,2.842-1.526V122h.952V111.612Zm-2.716,9.576a2.874,2.874,0,1,1,2.73-2.87A2.7,2.7,0,0,1,49.56,121.188Zm12.908-2.87a3.509,3.509,0,0,0-3.57-3.738,3.547,3.547,0,0,0-3.6,3.738,3.893,3.893,0,0,0,6.706,2.548l-.56-.644a2.9,2.9,0,0,1-2.254.966,2.726,2.726,0,0,1-2.9-2.562h6.16C62.454,118.514,62.468,118.4,62.468,118.318Zm-3.57-2.884a2.561,2.561,0,0,1,2.618,2.45H56.294A2.558,2.558,0,0,1,58.9,115.434Zm7.574,6.636c1.918,0,3.038-.826,3.038-2.1,0-2.828-4.774-1.33-4.774-3.318,0-.7.588-1.218,1.918-1.218a3.774,3.774,0,0,1,2.17.63l.434-.8a4.99,4.99,0,0,0-2.6-.686c-1.876,0-2.912.9-2.912,2.1,0,2.912,4.774,1.4,4.774,3.318,0,.728-.574,1.2-1.974,1.2a4.448,4.448,0,0,1-2.618-.826l-.448.784A4.92,4.92,0,0,0,66.472,122.07Zm8.4-1.232a1.645,1.645,0,0,1-1.092.378,1.179,1.179,0,0,1-1.274-1.344v-4.4h2.24v-.84h-2.24v-1.61h-.994v1.61H70.2v.84h1.316v4.452a1.951,1.951,0,0,0,2.156,2.142,2.367,2.367,0,0,0,1.554-.518ZM79.6,114.58a4.676,4.676,0,0,0-3,.994l.448.742a3.751,3.751,0,0,1,2.45-.868c1.372,0,2.086.686,2.086,1.946v.448H79.254c-2.114,0-2.842.952-2.842,2.086,0,1.274,1.022,2.142,2.688,2.142a2.765,2.765,0,0,0,2.534-1.218V122h.952v-4.564C82.586,115.532,81.508,114.58,79.6,114.58Zm-.35,6.706c-1.176,0-1.862-.532-1.862-1.386,0-.756.462-1.316,1.89-1.316h2.31v1.2A2.356,2.356,0,0,1,79.254,121.286Zm11.83-6.65v1.456a3.208,3.208,0,0,0-2.842-1.512,3.746,3.746,0,0,0,0,7.49,3.216,3.216,0,0,0,2.8-1.456v4.1h.994v-10.08Zm-2.758,6.552a2.874,2.874,0,1,1,2.73-2.87A2.7,2.7,0,0,1,88.326,121.188Zm12.124-6.552V118.5a2.4,2.4,0,0,1-2.506,2.674,2.061,2.061,0,0,1-2.212-2.366v-4.172h-.994v4.27a2.852,2.852,0,0,0,3.108,3.164,2.929,2.929,0,0,0,2.646-1.414V122h.952v-7.364Zm10.206,3.682a3.509,3.509,0,0,0-3.57-3.738,3.547,3.547,0,0,0-3.6,3.738,3.893,3.893,0,0,0,6.706,2.548l-.56-.644a2.9,2.9,0,0,1-2.254.966,2.726,2.726,0,0,1-2.9-2.562h6.16C110.642,118.514,110.656,118.4,110.656,118.318Zm-3.57-2.884a2.561,2.561,0,0,1,2.618,2.45h-5.222A2.558,2.558,0,0,1,107.086,115.434Z" transform="translate(1231 263)" fill="#686976"/>
    <path id="Caminho_39" data-name="Caminho 39" d="M8.568,6.02V4.2H1.162V14H3.43V10.43H7.966V8.61H3.43V6.02Zm4.774,8.092a3.886,3.886,0,1,0,0-7.756,3.887,3.887,0,1,0,0,7.756Zm0-1.792a1.911,1.911,0,0,1-1.932-2.086,1.931,1.931,0,1,1,3.85,0A1.9,1.9,0,0,1,13.342,12.32ZM23.2,12.1a1.472,1.472,0,0,1-.882.28.878.878,0,0,1-.938-.994V8.316h1.876V6.636H21.378V4.8H19.194V6.636H18.032v1.68h1.162V11.41a2.483,2.483,0,0,0,2.814,2.7,3.121,3.121,0,0,0,1.778-.476Zm5.166,2.016a3.886,3.886,0,1,0,0-7.756,3.887,3.887,0,1,0,0,7.756Zm0-1.792a1.911,1.911,0,0,1-1.932-2.086,1.931,1.931,0,1,1,3.85,0A1.9,1.9,0,0,1,28.364,12.32Zm8.12,1.792c2.254,0,3.556-.994,3.556-2.394,0-2.968-4.55-1.722-4.55-3.01,0-.392.42-.7,1.4-.7a4.325,4.325,0,0,1,2.17.56l.728-1.554a6.193,6.193,0,0,0-2.9-.658c-2.2,0-3.486,1.008-3.486,2.436,0,3.01,4.55,1.75,4.55,2.982,0,.42-.378.686-1.386.686a5.153,5.153,0,0,1-2.618-.728L33.222,13.3A6.466,6.466,0,0,0,36.484,14.112Zm14.35-10.5V7.266a2.894,2.894,0,0,0-2.254-.91,3.661,3.661,0,0,0-3.766,3.878,3.661,3.661,0,0,0,3.766,3.878,2.9,2.9,0,0,0,2.352-.98V14h2.086V3.612ZM48.958,12.32a1.911,1.911,0,0,1-1.932-2.086,1.931,1.931,0,1,1,3.85,0A1.908,1.908,0,0,1,48.958,12.32Zm9.114-5.964a5.79,5.79,0,0,0-3.248.91l.784,1.526a3.622,3.622,0,0,1,2.17-.7c1.176,0,1.736.546,1.736,1.484H57.778c-2.3,0-3.234.924-3.234,2.254,0,1.3,1.05,2.282,2.814,2.282a2.472,2.472,0,0,0,2.3-1.05V14H61.7V9.7C61.7,7.42,60.368,6.356,58.072,6.356ZM57.9,12.642c-.77,0-1.232-.364-1.232-.91,0-.5.322-.882,1.344-.882h1.5v.77A1.609,1.609,0,0,1,57.9,12.642Zm8.3,1.47c2.254,0,3.556-.994,3.556-2.394,0-2.968-4.55-1.722-4.55-3.01,0-.392.42-.7,1.4-.7a4.325,4.325,0,0,1,2.17.56l.728-1.554a6.193,6.193,0,0,0-2.9-.658c-2.2,0-3.486,1.008-3.486,2.436,0,3.01,4.55,1.75,4.55,2.982,0,.42-.378.686-1.386.686a5.153,5.153,0,0,1-2.618-.728L62.944,13.3A6.466,6.466,0,0,0,66.206,14.112ZM82.544,14h2.38L80.542,4.2H78.3L73.934,14h2.324l.868-2.1h4.55Zm-4.69-3.822,1.554-3.752,1.554,3.752Zm12.922-3.71L88.62,11.592,86.534,6.468H84.28L87.444,14H89.7l3.178-7.532Zm5.782-.112a5.79,5.79,0,0,0-3.248.91l.784,1.526a3.622,3.622,0,0,1,2.17-.7C97.44,8.092,98,8.638,98,9.576H96.264c-2.3,0-3.234.924-3.234,2.254,0,1.3,1.05,2.282,2.814,2.282a2.472,2.472,0,0,0,2.3-1.05V14h2.044V9.7C100.184,7.42,98.854,6.356,96.558,6.356Zm-.168,6.286c-.77,0-1.232-.364-1.232-.91,0-.5.322-.882,1.344-.882H98v.77A1.609,1.609,0,0,1,96.39,12.642Zm7.854-5.18V6.468h-2.086V14h2.184V10.444a1.851,1.851,0,0,1,2-2.1c.168,0,.308.014.49.028V6.356A3.04,3.04,0,0,0,104.244,7.462Zm4.984-2.044a1.256,1.256,0,0,0,1.358-1.26,1.226,1.226,0,0,0-1.358-1.176A1.248,1.248,0,0,0,107.87,4.2,1.248,1.248,0,0,0,109.228,5.418ZM108.136,14h2.184V6.468h-2.184Zm7.252-7.644a5.79,5.79,0,0,0-3.248.91l.784,1.526a3.622,3.622,0,0,1,2.17-.7c1.176,0,1.736.546,1.736,1.484h-1.736c-2.3,0-3.234.924-3.234,2.254,0,1.3,1.05,2.282,2.814,2.282a2.472,2.472,0,0,0,2.3-1.05V14h2.044V9.7C119.014,7.42,117.684,6.356,115.388,6.356Zm-.168,6.286c-.77,0-1.232-.364-1.232-.91,0-.5.322-.882,1.344-.882h1.5v.77A1.609,1.609,0,0,1,115.22,12.642Zm8.3,1.47c2.254,0,3.556-.994,3.556-2.394,0-2.968-4.55-1.722-4.55-3.01,0-.392.42-.7,1.4-.7a4.325,4.325,0,0,1,2.17.56l.728-1.554a6.193,6.193,0,0,0-2.9-.658c-2.2,0-3.486,1.008-3.486,2.436,0,3.01,4.55,1.75,4.55,2.982,0,.42-.378.686-1.386.686a5.153,5.153,0,0,1-2.618-.728L120.26,13.3A6.466,6.466,0,0,0,123.522,14.112ZM8.764,40.2v7.952L2.45,40.2H1.6V50H2.632V42.048L8.932,50h.854V40.2Zm5.726.266c.56,0,.966.952,1.834.952.742,0,1.232-.6,1.26-1.512h-.6c-.028.532-.308.868-.728.868-.546,0-.966-.952-1.834-.952-.742,0-1.232.6-1.26,1.54h.6C13.79,40.8,14.07,40.466,14.49,40.466Zm.854,2.114a4.676,4.676,0,0,0-3,.994l.448.742a3.751,3.751,0,0,1,2.45-.868c1.372,0,2.086.686,2.086,1.946v.448H14.994c-2.114,0-2.842.952-2.842,2.086,0,1.274,1.022,2.142,2.688,2.142a2.765,2.765,0,0,0,2.534-1.218V50h.952V45.436C18.326,43.532,17.248,42.58,15.344,42.58Zm-.35,6.706c-1.176,0-1.862-.532-1.862-1.386,0-.756.462-1.316,1.89-1.316h2.31v1.2A2.356,2.356,0,0,1,14.994,49.286Zm9.072.784a3.745,3.745,0,0,0,0-7.49,3.745,3.745,0,1,0,0,7.49Zm0-.882a2.874,2.874,0,1,1,2.73-2.87A2.7,2.7,0,0,1,24.066,49.188Zm12.964-.35a1.645,1.645,0,0,1-1.092.378,1.179,1.179,0,0,1-1.274-1.344v-4.4H36.9v-.84h-2.24v-1.61H33.67v1.61H32.354v.84H33.67v4.452a1.951,1.951,0,0,0,2.156,2.142,2.367,2.367,0,0,0,1.554-.518Zm8.316-2.52a3.509,3.509,0,0,0-3.57-3.738,3.547,3.547,0,0,0-3.6,3.738,3.893,3.893,0,0,0,6.706,2.548l-.56-.644a2.9,2.9,0,0,1-2.254.966,2.726,2.726,0,0,1-2.9-2.562h6.16C45.332,46.514,45.346,46.4,45.346,46.318Zm-3.57-2.884a2.561,2.561,0,0,1,2.618,2.45H39.172A2.558,2.558,0,0,1,41.776,43.434Zm9.352-.854a3.1,3.1,0,0,0-2.8,1.414V42.636h-.952V50h.994V46.136a2.414,2.414,0,0,1,2.576-2.66,2.056,2.056,0,0,1,2.212,2.352V50h.994V45.73A2.819,2.819,0,0,0,51.128,42.58Zm9.478,0a3.112,3.112,0,0,0-2.758,1.344V39.612h-.994V50h.994V46.136a2.414,2.414,0,0,1,2.576-2.66,2.056,2.056,0,0,1,2.212,2.352V50h.994V45.73A2.819,2.819,0,0,0,60.606,42.58Zm8.3,0a4.676,4.676,0,0,0-3,.994l.448.742a3.751,3.751,0,0,1,2.45-.868c1.372,0,2.086.686,2.086,1.946v.448H68.558c-2.114,0-2.842.952-2.842,2.086,0,1.274,1.022,2.142,2.688,2.142a2.765,2.765,0,0,0,2.534-1.218V50h.952V45.436C71.89,43.532,70.812,42.58,68.908,42.58Zm-.35,6.706c-1.176,0-1.862-.532-1.862-1.386,0-.756.462-1.316,1.89-1.316H70.9v1.2A2.356,2.356,0,0,1,68.558,49.286Zm10.654-5.208V42.636H78.26V50h.994V46.248c0-1.736.938-2.716,2.478-2.716.07,0,.154.014.238.014V42.58A2.777,2.777,0,0,0,79.212,44.078Zm10.906,2.24a3.509,3.509,0,0,0-3.57-3.738,3.547,3.547,0,0,0-3.6,3.738,3.893,3.893,0,0,0,6.706,2.548l-.56-.644a2.9,2.9,0,0,1-2.254.966,2.726,2.726,0,0,1-2.9-2.562H90.1C90.1,46.514,90.118,46.4,90.118,46.318Zm-3.57-2.884a2.561,2.561,0,0,1,2.618,2.45H83.944A2.558,2.558,0,0,1,86.548,43.434ZM95.2,50.07a3.246,3.246,0,0,0,2.884-1.456l-.742-.5A2.491,2.491,0,0,1,95.2,49.188a2.871,2.871,0,0,1,0-5.74,2.5,2.5,0,0,1,2.142,1.092l.742-.5A3.216,3.216,0,0,0,95.2,42.58a3.745,3.745,0,1,0,0,7.49Zm11.13-3.752a3.509,3.509,0,0,0-3.57-3.738,3.547,3.547,0,0,0-3.6,3.738,3.893,3.893,0,0,0,6.706,2.548l-.56-.644a2.9,2.9,0,0,1-2.254.966,2.726,2.726,0,0,1-2.9-2.562h6.16C106.316,46.514,106.33,46.4,106.33,46.318Zm-3.57-2.884a2.561,2.561,0,0,1,2.618,2.45h-5.222A2.558,2.558,0,0,1,102.76,43.434Zm6.1-2.408a.714.714,0,0,0,.728-.728.706.706,0,0,0-.728-.686.707.707,0,1,0,0,1.414ZM108.36,50h.994V42.636h-.994Zm6.776.07a3.745,3.745,0,1,0-3.752-3.752A3.622,3.622,0,0,0,115.136,50.07Zm0-.882a2.874,2.874,0,1,1,2.73-2.87A2.7,2.7,0,0,1,115.136,49.188ZM131,46.318a3.509,3.509,0,0,0-3.57-3.738,3.547,3.547,0,0,0-3.6,3.738,3.893,3.893,0,0,0,6.706,2.548l-.56-.644a2.9,2.9,0,0,1-2.254.966,2.726,2.726,0,0,1-2.9-2.562h6.16C130.984,46.514,131,46.4,131,46.318Zm-3.57-2.884a2.561,2.561,0,0,1,2.618,2.45h-5.222A2.558,2.558,0,0,1,127.428,43.434Zm14.784-.854a3.207,3.207,0,0,0-2.912,1.554,2.645,2.645,0,0,0-2.618-1.554,2.978,2.978,0,0,0-2.7,1.4V42.636h-.952V50h.994V46.136a2.373,2.373,0,0,1,2.464-2.66c1.344,0,2.128.8,2.128,2.352V50h.994V46.136a2.367,2.367,0,0,1,2.464-2.66c1.33,0,2.114.8,2.114,2.352V50h.994V45.73C145.18,43.616,144,42.58,142.212,42.58ZM10.57,60.58a3.207,3.207,0,0,0-2.912,1.554A2.645,2.645,0,0,0,5.04,60.58a2.978,2.978,0,0,0-2.7,1.4V60.636H1.386V68H2.38V64.136a2.373,2.373,0,0,1,2.464-2.66c1.344,0,2.128.8,2.128,2.352V68h.994V64.136a2.367,2.367,0,0,1,2.464-2.66c1.33,0,2.114.8,2.114,2.352V68h.994V63.73C13.538,61.616,12.362,60.58,10.57,60.58Zm8.708,7.49a3.745,3.745,0,0,0,0-7.49,3.745,3.745,0,1,0,0,7.49Zm0-.882a2.874,2.874,0,1,1,2.73-2.87A2.7,2.7,0,0,1,19.278,67.188Zm7.742.882c1.918,0,3.038-.826,3.038-2.1,0-2.828-4.774-1.33-4.774-3.318,0-.7.588-1.218,1.918-1.218a3.775,3.775,0,0,1,2.17.63l.434-.8a4.99,4.99,0,0,0-2.6-.686c-1.876,0-2.912.9-2.912,2.1,0,2.912,4.774,1.4,4.774,3.318,0,.728-.574,1.2-1.974,1.2a4.448,4.448,0,0,1-2.618-.826l-.448.784A4.92,4.92,0,0,0,27.02,68.07Zm8.4-1.232a1.645,1.645,0,0,1-1.092.378,1.179,1.179,0,0,1-1.274-1.344v-4.4h2.24v-.84h-2.24v-1.61H32.06v1.61H30.744v.84H32.06v4.452a1.951,1.951,0,0,0,2.156,2.142,2.367,2.367,0,0,0,1.554-.518Zm3.108-4.76V60.636h-.952V68h.994V64.248c0-1.736.938-2.716,2.478-2.716.07,0,.154.014.238.014V60.58A2.777,2.777,0,0,0,38.528,62.078Zm7.112-1.5a4.676,4.676,0,0,0-3,.994l.448.742a3.751,3.751,0,0,1,2.45-.868c1.372,0,2.086.686,2.086,1.946v.448H45.29c-2.114,0-2.842.952-2.842,2.086,0,1.274,1.022,2.142,2.688,2.142a2.765,2.765,0,0,0,2.534-1.218V68h.952V63.436C48.622,61.532,47.544,60.58,45.64,60.58Zm-.35,6.706c-1.176,0-1.862-.532-1.862-1.386,0-.756.462-1.316,1.89-1.316h2.31v1.2A2.356,2.356,0,0,1,45.29,67.286Zm6.986-5.208V60.636h-.952V68h.994V64.248c0-1.736.938-2.716,2.478-2.716.07,0,.154.014.238.014V60.58A2.777,2.777,0,0,0,52.276,62.078Zm10.906-1.5a4.676,4.676,0,0,0-3,.994l.448.742a3.751,3.751,0,0,1,2.45-.868c1.372,0,2.086.686,2.086,1.946v.448H62.832c-2.114,0-2.842.952-2.842,2.086,0,1.274,1.022,2.142,2.688,2.142a2.765,2.765,0,0,0,2.534-1.218V68h.952V63.436C66.164,61.532,65.086,60.58,63.182,60.58Zm-.35,6.706c-1.176,0-1.862-.532-1.862-1.386,0-.756.462-1.316,1.89-1.316h2.31v1.2A2.356,2.356,0,0,1,62.832,67.286Zm8.008.784c1.918,0,3.038-.826,3.038-2.1,0-2.828-4.774-1.33-4.774-3.318,0-.7.588-1.218,1.918-1.218a3.775,3.775,0,0,1,2.17.63l.434-.8a4.99,4.99,0,0,0-2.6-.686c-1.876,0-2.912.9-2.912,2.1,0,2.912,4.774,1.4,4.774,3.318,0,.728-.574,1.2-1.974,1.2a4.448,4.448,0,0,1-2.618-.826l-.448.784A4.92,4.92,0,0,0,70.84,68.07Zm11.116-7.49a4.676,4.676,0,0,0-3,.994l.448.742a3.751,3.751,0,0,1,2.45-.868c1.372,0,2.086.686,2.086,1.946v.448H81.606c-2.114,0-2.842.952-2.842,2.086,0,1.274,1.022,2.142,2.688,2.142a2.765,2.765,0,0,0,2.534-1.218V68h.952V63.436C84.938,61.532,83.86,60.58,81.956,60.58Zm-.35,6.706c-1.176,0-1.862-.532-1.862-1.386,0-.756.462-1.316,1.89-1.316h2.31v1.2A2.356,2.356,0,0,1,81.606,67.286Zm11.1-6.65-2.786,6.272-2.758-6.272H86.128L89.39,68h1.022l3.276-7.364Zm4.732-.056a4.676,4.676,0,0,0-3,.994l.448.742a3.751,3.751,0,0,1,2.45-.868c1.372,0,2.086.686,2.086,1.946v.448H97.09c-2.114,0-2.842.952-2.842,2.086,0,1.274,1.022,2.142,2.688,2.142a2.765,2.765,0,0,0,2.534-1.218V68h.952V63.436C100.422,61.532,99.344,60.58,97.44,60.58Zm-.35,6.706c-1.176,0-1.862-.532-1.862-1.386,0-.756.462-1.316,1.89-1.316h2.31v1.2A2.356,2.356,0,0,1,97.09,67.286Zm6.986-5.208V60.636h-.952V68h.994V64.248c0-1.736.938-2.716,2.478-2.716.07,0,.154.014.238.014V60.58A2.777,2.777,0,0,0,104.076,62.078Zm5.054-3.052a.714.714,0,0,0,.728-.728.706.706,0,0,0-.728-.686.707.707,0,1,0,0,1.414Zm-.5,8.974h.994V60.636h-.994Zm6.342-7.42a4.676,4.676,0,0,0-3,.994l.448.742a3.751,3.751,0,0,1,2.45-.868c1.372,0,2.086.686,2.086,1.946v.448h-2.338c-2.114,0-2.842.952-2.842,2.086,0,1.274,1.022,2.142,2.688,2.142A2.765,2.765,0,0,0,117,66.852V68h.952V63.436C117.95,61.532,116.872,60.58,114.968,60.58Zm-.35,6.706c-1.176,0-1.862-.532-1.862-1.386,0-.756.462-1.316,1.89-1.316h2.31v1.2A2.356,2.356,0,0,1,114.618,67.286Zm8.008.784c1.918,0,3.038-.826,3.038-2.1,0-2.828-4.774-1.33-4.774-3.318,0-.7.588-1.218,1.918-1.218a3.775,3.775,0,0,1,2.17.63l.434-.8a4.99,4.99,0,0,0-2.6-.686c-1.876,0-2.912.9-2.912,2.1,0,2.912,4.774,1.4,4.774,3.318,0,.728-.574,1.2-1.974,1.2a4.448,4.448,0,0,1-2.618-.826l-.448.784A4.92,4.92,0,0,0,122.626,68.07Zm14.266-10.458v4.424a3.216,3.216,0,0,0-2.8-1.456,3.746,3.746,0,0,0,0,7.49,3.19,3.19,0,0,0,2.842-1.526V68h.952V57.612Zm-2.716,9.576a2.874,2.874,0,1,1,2.73-2.87A2.7,2.7,0,0,1,134.176,67.188Zm9.492.882a3.745,3.745,0,1,0-3.752-3.752A3.622,3.622,0,0,0,143.668,68.07Zm0-.882a2.874,2.874,0,1,1,2.73-2.87A2.7,2.7,0,0,1,143.668,67.188ZM6.594,78.636,3.808,84.908,1.05,78.636H.014L3.276,86H4.3l3.276-7.364Zm8.6,3.682a3.509,3.509,0,0,0-3.57-3.738,3.547,3.547,0,0,0-3.6,3.738,3.647,3.647,0,0,0,3.864,3.752,3.625,3.625,0,0,0,2.842-1.2l-.56-.644a2.9,2.9,0,0,1-2.254.966,2.726,2.726,0,0,1-2.9-2.562h6.16C15.176,82.514,15.19,82.4,15.19,82.318Zm-3.57-2.884a2.561,2.561,0,0,1,2.618,2.45H9.016A2.558,2.558,0,0,1,11.62,79.434ZM16.814,77.5h.98l2.268-1.736h-1.33ZM17.22,86h.994V78.636H17.22Zm6.818.07a3.246,3.246,0,0,0,2.884-1.456l-.742-.5a2.491,2.491,0,0,1-2.142,1.078,2.871,2.871,0,0,1,0-5.74A2.5,2.5,0,0,1,26.18,80.54l.742-.5a3.216,3.216,0,0,0-2.884-1.456,3.745,3.745,0,1,0,0,7.49ZM34.51,78.636V82.5A2.4,2.4,0,0,1,32,85.174a2.061,2.061,0,0,1-2.212-2.366V78.636H28.8v4.27a2.852,2.852,0,0,0,3.108,3.164,2.929,2.929,0,0,0,2.646-1.414V86H35.5V78.636ZM38.29,86h.994V75.612H38.29Zm6.776.07a3.745,3.745,0,1,0-3.752-3.752A3.622,3.622,0,0,0,45.066,86.07Zm0-.882a2.874,2.874,0,1,1,2.73-2.87A2.7,2.7,0,0,1,45.066,85.188Zm5.67-.644a.733.733,0,0,0-.742.756.708.708,0,0,0,.5.714l-.476,2.03h.672l.588-1.932a2.284,2.284,0,0,0,.2-.812A.733.733,0,0,0,50.736,84.544Zm9.576,1.526A3.246,3.246,0,0,0,63.2,84.614l-.742-.5a2.491,2.491,0,0,1-2.142,1.078,2.871,2.871,0,0,1,0-5.74,2.5,2.5,0,0,1,2.142,1.092l.742-.5a3.216,3.216,0,0,0-2.884-1.456,3.745,3.745,0,1,0,0,7.49Zm7.714,0a3.745,3.745,0,1,0-3.752-3.752A3.622,3.622,0,0,0,68.026,86.07Zm0-.882a2.874,2.874,0,1,1,2.73-2.87A2.7,2.7,0,0,1,68.026,85.188ZM82.978,78.58a3.207,3.207,0,0,0-2.912,1.554,2.645,2.645,0,0,0-2.618-1.554,2.978,2.978,0,0,0-2.7,1.4V78.636h-.952V86h.994V82.136a2.373,2.373,0,0,1,2.464-2.66c1.344,0,2.128.8,2.128,2.352V86h.994V82.136a2.367,2.367,0,0,1,2.464-2.66c1.33,0,2.114.8,2.114,2.352V86h.994V81.73C85.946,79.616,84.77,78.58,82.978,78.58Zm8.708,7.49a3.745,3.745,0,1,0-3.752-3.752A3.622,3.622,0,0,0,91.686,86.07Zm0-.882a2.874,2.874,0,1,1,2.73-2.87A2.7,2.7,0,0,1,91.686,85.188Zm9.94-8.162a.714.714,0,0,0,.728-.728.706.706,0,0,0-.728-.686.707.707,0,1,0,0,1.414Zm-.5,8.974h.994V78.636h-.994Zm4.718-5.922V78.636h-.952V86h.994V82.248c0-1.736.938-2.716,2.478-2.716.07,0,.154.014.238.014V78.58A2.777,2.777,0,0,0,105.84,80.078Zm10.906,2.24a3.509,3.509,0,0,0-3.57-3.738,3.547,3.547,0,0,0-3.6,3.738,3.893,3.893,0,0,0,6.706,2.548l-.56-.644a2.9,2.9,0,0,1-2.254.966,2.726,2.726,0,0,1-2.9-2.562h6.16C116.732,82.514,116.746,82.4,116.746,82.318Zm-3.57-2.884a2.561,2.561,0,0,1,2.618,2.45h-5.222A2.558,2.558,0,0,1,113.176,79.434Zm14.784-.854a3.207,3.207,0,0,0-2.912,1.554,2.645,2.645,0,0,0-2.618-1.554,2.978,2.978,0,0,0-2.7,1.4V78.636h-.952V86h.994V82.136a2.373,2.373,0,0,1,2.464-2.66c1.344,0,2.128.8,2.128,2.352V86h.994V82.136a2.367,2.367,0,0,1,2.464-2.66c1.33,0,2.114.8,2.114,2.352V86h.994V81.73C130.928,79.616,129.752,78.58,127.96,78.58Zm8.708,7.49a3.745,3.745,0,1,0-3.752-3.752A3.622,3.622,0,0,0,136.668,86.07Zm0-.882a2.874,2.874,0,1,1,2.73-2.87A2.7,2.7,0,0,1,136.668,85.188Zm7.742.882c1.918,0,3.038-.826,3.038-2.1,0-2.828-4.774-1.33-4.774-3.318,0-.7.588-1.218,1.918-1.218a3.775,3.775,0,0,1,2.17.63l.434-.8a4.99,4.99,0,0,0-2.6-.686c-1.876,0-2.912.9-2.912,2.1,0,2.912,4.774,1.4,4.774,3.318,0,.728-.574,1.2-1.974,1.2a4.448,4.448,0,0,1-2.618-.826l-.448.784A4.92,4.92,0,0,0,144.41,86.07ZM3.822,94.382a1.684,1.684,0,0,1,1.092.364L5.25,94a2.334,2.334,0,0,0-1.47-.462,2.028,2.028,0,0,0-2.226,2.184v.91H.238v.84H1.554V104h.994V97.476h2.24v-.84H2.52v-.868C2.52,94.858,2.968,94.382,3.822,94.382Zm4.746,2.2a4.676,4.676,0,0,0-3,.994l.448.742a3.751,3.751,0,0,1,2.45-.868c1.372,0,2.086.686,2.086,1.946v.448H8.218c-2.114,0-2.842.952-2.842,2.086,0,1.274,1.022,2.142,2.688,2.142a2.765,2.765,0,0,0,2.534-1.218V104h.952V99.436C11.55,97.532,10.472,96.58,8.568,96.58Zm-.35,6.706c-1.176,0-1.862-.532-1.862-1.386,0-.756.462-1.316,1.89-1.316h2.31v1.2A2.356,2.356,0,0,1,8.218,103.286Zm6.51-.112,4.634-5.88v-.658H13.538v.84h4.55l-4.634,5.866V104h5.992v-.826Zm12.978-2.856a3.509,3.509,0,0,0-3.57-3.738,3.547,3.547,0,0,0-3.6,3.738A3.647,3.647,0,0,0,24.4,104.07a3.625,3.625,0,0,0,2.842-1.2l-.56-.644a2.9,2.9,0,0,1-2.254.966,2.726,2.726,0,0,1-2.9-2.562h6.16C27.692,100.514,27.706,100.4,27.706,100.318Zm-3.57-2.884a2.561,2.561,0,0,1,2.618,2.45H21.532A2.558,2.558,0,0,1,24.136,97.434Zm6.552.644V96.636h-.952V104h.994v-3.752c0-1.736.938-2.716,2.478-2.716.07,0,.154.014.238.014V96.58A2.777,2.777,0,0,0,30.688,98.078ZM44.66,96.636V100.5a2.4,2.4,0,0,1-2.506,2.674,2.061,2.061,0,0,1-2.212-2.366V96.636h-.994v4.27a2.852,2.852,0,0,0,3.108,3.164,2.929,2.929,0,0,0,2.646-1.414V104h.952V96.636Zm12.964-.056a3.207,3.207,0,0,0-2.912,1.554,2.645,2.645,0,0,0-2.618-1.554,2.978,2.978,0,0,0-2.7,1.4V96.636H48.44V104h.994v-3.864a2.373,2.373,0,0,1,2.464-2.66c1.344,0,2.128.8,2.128,2.352V104h.994v-3.864a2.367,2.367,0,0,1,2.464-2.66c1.33,0,2.114.8,2.114,2.352V104h.994V99.73C60.592,97.616,59.416,96.58,57.624,96.58ZM66.962,104h.994V93.612h-.994ZM73.3,96.58a4.676,4.676,0,0,0-3,.994l.448.742a3.751,3.751,0,0,1,2.45-.868c1.372,0,2.086.686,2.086,1.946v.448H72.954c-2.114,0-2.842.952-2.842,2.086,0,1.274,1.022,2.142,2.688,2.142a2.765,2.765,0,0,0,2.534-1.218V104h.952V99.436C76.286,97.532,75.208,96.58,73.3,96.58Zm-.35,6.706c-1.176,0-1.862-.532-1.862-1.386,0-.756.462-1.316,1.89-1.316h2.31v1.2A2.356,2.356,0,0,1,72.954,103.286Zm11.676-6.65V100.5a2.4,2.4,0,0,1-2.506,2.674,2.061,2.061,0,0,1-2.212-2.366V96.636h-.994v4.27a2.852,2.852,0,0,0,3.108,3.164,2.929,2.929,0,0,0,2.646-1.414V104h.952V96.636Zm9.506-3.024v4.424a3.216,3.216,0,0,0-2.8-1.456,3.746,3.746,0,0,0,0,7.49,3.19,3.19,0,0,0,2.842-1.526V104h.952V93.612Zm-2.716,9.576a2.874,2.874,0,1,1,2.73-2.87A2.7,2.7,0,0,1,91.42,103.188Zm9.492.882a3.745,3.745,0,1,0-3.752-3.752A3.622,3.622,0,0,0,100.912,104.07Zm0-.882a2.874,2.874,0,1,1,2.73-2.87A2.7,2.7,0,0,1,100.912,103.188Zm15.862-2.87a3.509,3.509,0,0,0-3.57-3.738,3.547,3.547,0,0,0-3.6,3.738,3.893,3.893,0,0,0,6.706,2.548l-.56-.644a2.9,2.9,0,0,1-2.254.966,2.726,2.726,0,0,1-2.9-2.562h6.16C116.76,100.514,116.774,100.4,116.774,100.318Zm-3.57-2.884a2.561,2.561,0,0,1,2.618,2.45H110.6A2.558,2.558,0,0,1,113.2,97.434ZM118.8,104h.994V93.612H118.8Zm6.342-7.42a4.676,4.676,0,0,0-3,.994l.448.742a3.751,3.751,0,0,1,2.45-.868c1.372,0,2.086.686,2.086,1.946v.448H124.8c-2.114,0-2.842.952-2.842,2.086,0,1.274,1.022,2.142,2.688,2.142a2.765,2.765,0,0,0,2.534-1.218V104h.952V99.436C128.128,97.532,127.05,96.58,125.146,96.58Zm-.35,6.706c-1.176,0-1.862-.532-1.862-1.386,0-.756.462-1.316,1.89-1.316h2.31v1.2A2.356,2.356,0,0,1,124.8,103.286Zm8.008.784c1.918,0,3.038-.826,3.038-2.1,0-2.828-4.774-1.33-4.774-3.318,0-.7.588-1.218,1.918-1.218a3.775,3.775,0,0,1,2.17.63l.434-.8a4.99,4.99,0,0,0-2.6-.686c-1.876,0-2.912.9-2.912,2.1,0,2.912,4.774,1.4,4.774,3.318,0,.728-.574,1.2-1.974,1.2a4.448,4.448,0,0,1-2.618-.826l-.448.784A4.92,4.92,0,0,0,132.8,104.07Zm9.044-9.044a.714.714,0,0,0,.728-.728.706.706,0,0,0-.728-.686.707.707,0,1,0,0,1.414Zm-.5,8.974h.994V96.636h-.994Zm4.718-5.922V96.636h-.952V104h.994v-3.752c0-1.736.938-2.716,2.478-2.716.07,0,.154.014.238.014V96.58A2.777,2.777,0,0,0,146.062,98.078Zm6.258-3.612c.56,0,.966.952,1.834.952.742,0,1.232-.6,1.26-1.512h-.6c-.028.532-.308.868-.728.868-.546,0-.966-.952-1.834-.952-.742,0-1.232.6-1.26,1.54h.6C151.62,94.8,151.9,94.466,152.32,94.466Zm.854,2.114a4.676,4.676,0,0,0-3,.994l.448.742a3.751,3.751,0,0,1,2.45-.868c1.372,0,2.086.686,2.086,1.946v.448h-2.338c-2.114,0-2.842.952-2.842,2.086,0,1.274,1.022,2.142,2.688,2.142a2.765,2.765,0,0,0,2.534-1.218V104h.952V99.436C156.156,97.532,155.078,96.58,153.174,96.58Zm-.35,6.706c-1.176,0-1.862-.532-1.862-1.386,0-.756.462-1.316,1.89-1.316h2.31v1.2A2.356,2.356,0,0,1,152.824,103.286Zm9.072.784a3.745,3.745,0,1,0-3.752-3.752A3.622,3.622,0,0,0,161.9,104.07Zm0-.882a2.874,2.874,0,1,1,2.73-2.87A2.7,2.7,0,0,1,161.9,103.188ZM3.962,114.58a4.676,4.676,0,0,0-3,.994l.448.742a3.751,3.751,0,0,1,2.45-.868c1.372,0,2.086.686,2.086,1.946v.448H3.612c-2.114,0-2.842.952-2.842,2.086,0,1.274,1.022,2.142,2.688,2.142a2.765,2.765,0,0,0,2.534-1.218V122h.952v-4.564C6.944,115.532,5.866,114.58,3.962,114.58Zm-.35,6.706c-1.176,0-1.862-.532-1.862-1.386,0-.756.462-1.316,1.89-1.316H5.95v1.2A2.356,2.356,0,0,1,3.612,121.286Zm9.828-6.706a3.208,3.208,0,0,0-2.842,1.512v-1.456H9.646v10.08h.994v-4.1a3.216,3.216,0,0,0,2.8,1.456,3.746,3.746,0,0,0,0-7.49Zm-.07,6.608a2.873,2.873,0,1,1,2.744-2.87A2.7,2.7,0,0,1,13.37,121.188Zm8.3-6.608a4.676,4.676,0,0,0-3,.994l.448.742a3.751,3.751,0,0,1,2.45-.868c1.372,0,2.086.686,2.086,1.946v.448H21.322c-2.114,0-2.842.952-2.842,2.086,0,1.274,1.022,2.142,2.688,2.142a2.765,2.765,0,0,0,2.534-1.218V122h.952v-4.564C24.654,115.532,23.576,114.58,21.672,114.58Zm-.35,6.706c-1.176,0-1.862-.532-1.862-1.386,0-.756.462-1.316,1.89-1.316h2.31v1.2A2.356,2.356,0,0,1,21.322,121.286Zm6.986-5.208v-1.442h-.952V122h.994v-3.752c0-1.736.938-2.716,2.478-2.716.07,0,.154.014.238.014v-.966A2.777,2.777,0,0,0,28.308,116.078Zm10.906,2.24a3.509,3.509,0,0,0-3.57-3.738,3.547,3.547,0,0,0-3.6,3.738,3.647,3.647,0,0,0,3.864,3.752,3.625,3.625,0,0,0,2.842-1.2l-.56-.644a2.9,2.9,0,0,1-2.254.966,2.726,2.726,0,0,1-2.9-2.562H39.2C39.2,118.514,39.214,118.4,39.214,118.318Zm-3.57-2.884a2.561,2.561,0,0,1,2.618,2.45H33.04A2.558,2.558,0,0,1,35.644,115.434ZM44.3,122.07a3.246,3.246,0,0,0,2.884-1.456l-.742-.5a2.491,2.491,0,0,1-2.142,1.078,2.871,2.871,0,0,1,0-5.74,2.5,2.5,0,0,1,2.142,1.092l.742-.5A3.216,3.216,0,0,0,44.3,114.58a3.745,3.745,0,1,0,0,7.49Zm11.13-3.752a3.509,3.509,0,0,0-3.57-3.738,3.547,3.547,0,0,0-3.6,3.738,3.893,3.893,0,0,0,6.706,2.548l-.56-.644a2.9,2.9,0,0,1-2.254.966,2.726,2.726,0,0,1-2.9-2.562h6.16C55.412,118.514,55.426,118.4,55.426,118.318Zm-3.57-2.884a2.561,2.561,0,0,1,2.618,2.45H49.252A2.558,2.558,0,0,1,51.856,115.434Zm6.552.644v-1.442h-.952V122h.994v-3.752c0-1.736.938-2.716,2.478-2.716.07,0,.154.014.238.014v-.966A2.777,2.777,0,0,0,58.408,116.078Zm4.634,4.466a.733.733,0,0,0-.742.756.708.708,0,0,0,.5.714l-.476,2.03H63l.588-1.932a2.284,2.284,0,0,0,.2-.812A.733.733,0,0,0,63.042,120.544ZM73.36,114.58a3.208,3.208,0,0,0-2.842,1.512v-1.456h-.952v10.08h.994v-4.1a3.216,3.216,0,0,0,2.8,1.456,3.746,3.746,0,0,0,0-7.49Zm-.07,6.608a2.873,2.873,0,1,1,2.744-2.87A2.7,2.7,0,0,1,73.29,121.188Zm8.778.882a3.745,3.745,0,1,0-3.752-3.752A3.622,3.622,0,0,0,82.068,122.07Zm0-.882a2.874,2.874,0,1,1,2.73-2.87A2.7,2.7,0,0,1,82.068,121.188Zm6.72-5.11v-1.442h-.952V122h.994v-3.752c0-1.736.938-2.716,2.478-2.716.07,0,.154.014.238.014v-.966A2.777,2.777,0,0,0,88.788,116.078Zm8.4,4.76a1.645,1.645,0,0,1-1.092.378,1.179,1.179,0,0,1-1.274-1.344v-4.4h2.24v-.84h-2.24v-1.61h-.994v1.61H92.512v.84h1.316v4.452a1.951,1.951,0,0,0,2.156,2.142,2.367,2.367,0,0,0,1.554-.518Zm4.732-6.258a4.676,4.676,0,0,0-3,.994l.448.742a3.751,3.751,0,0,1,2.45-.868c1.372,0,2.086.686,2.086,1.946v.448H101.57c-2.114,0-2.842.952-2.842,2.086,0,1.274,1.022,2.142,2.688,2.142a2.765,2.765,0,0,0,2.534-1.218V122h.952v-4.564C104.9,115.532,103.824,114.58,101.92,114.58Zm-.35,6.706c-1.176,0-1.862-.532-1.862-1.386,0-.756.462-1.316,1.89-1.316h2.31v1.2A2.356,2.356,0,0,1,101.57,121.286Zm9.786-6.706a3.1,3.1,0,0,0-2.8,1.414v-1.358H107.6V122h.994v-3.864a2.414,2.414,0,0,1,2.576-2.66,2.056,2.056,0,0,1,2.212,2.352V122h.994v-4.27A2.819,2.819,0,0,0,111.356,114.58Zm9.254,6.258a1.645,1.645,0,0,1-1.092.378,1.179,1.179,0,0,1-1.274-1.344v-4.4h2.24v-.84h-2.24v-1.61h-.994v1.61h-1.316v.84h1.316v4.452a1.951,1.951,0,0,0,2.156,2.142,2.367,2.367,0,0,0,1.554-.518Zm4.9,1.232a3.745,3.745,0,1,0-3.752-3.752A3.622,3.622,0,0,0,125.51,122.07Zm0-.882a2.874,2.874,0,1,1,2.73-2.87A2.7,2.7,0,0,1,125.51,121.188ZM7.154,132.636v1.456a3.208,3.208,0,0,0-2.842-1.512,3.746,3.746,0,0,0,0,7.49,3.216,3.216,0,0,0,2.8-1.456v4.1h.994v-10.08ZM4.4,139.188a2.873,2.873,0,0,1,0-5.74,2.874,2.874,0,0,1,0,5.74Zm12.124-6.552V136.5a2.394,2.394,0,0,1-2.506,2.674,2.061,2.061,0,0,1-2.212-2.366v-4.172h-.994v4.27a2.852,2.852,0,0,0,3.108,3.164,2.929,2.929,0,0,0,2.646-1.414V140h.952v-7.364Zm6.356-.056a4.676,4.676,0,0,0-3,.994l.448.742a3.751,3.751,0,0,1,2.45-.868c1.372,0,2.086.686,2.086,1.946v.448H22.526c-2.114,0-2.842.952-2.842,2.086,0,1.274,1.022,2.142,2.688,2.142a2.765,2.765,0,0,0,2.534-1.218V140h.952v-4.564C25.858,133.532,24.78,132.58,22.876,132.58Zm-.35,6.706c-1.176,0-1.862-.532-1.862-1.386,0-.756.462-1.316,1.89-1.316h2.31v1.2A2.356,2.356,0,0,1,22.526,139.286Zm9.786-6.706a3.1,3.1,0,0,0-2.8,1.414v-1.358H28.56V140h.994v-3.864a2.414,2.414,0,0,1,2.576-2.66,2.056,2.056,0,0,1,2.212,2.352V140h.994v-4.27A2.819,2.819,0,0,0,32.312,132.58Zm9.254,6.258a1.645,1.645,0,0,1-1.092.378,1.179,1.179,0,0,1-1.274-1.344v-4.4h2.24v-.84H39.2v-1.61h-.994v1.61H36.89v.84h1.316v4.452a1.951,1.951,0,0,0,2.156,2.142,2.367,2.367,0,0,0,1.554-.518Zm4.9,1.232a3.745,3.745,0,1,0-3.752-3.752A3.622,3.622,0,0,0,46.466,140.07Zm0-.882a2.874,2.874,0,1,1,2.73-2.87A2.7,2.7,0,0,1,46.466,139.188Zm18.62-6.608a3.207,3.207,0,0,0-2.912,1.554,2.645,2.645,0,0,0-2.618-1.554,2.978,2.978,0,0,0-2.7,1.4v-1.344H55.9V140H56.9v-3.864a2.373,2.373,0,0,1,2.464-2.66c1.344,0,2.128.8,2.128,2.352V140h.994v-3.864a2.367,2.367,0,0,1,2.464-2.66c1.33,0,2.114.8,2.114,2.352V140h.994v-4.27C68.054,133.616,66.878,132.58,65.086,132.58Zm8.246,0a4.676,4.676,0,0,0-3,.994l.448.742a3.751,3.751,0,0,1,2.45-.868c1.372,0,2.086.686,2.086,1.946v.448H72.982c-2.114,0-2.842.952-2.842,2.086,0,1.274,1.022,2.142,2.688,2.142a2.765,2.765,0,0,0,2.534-1.218V140h.952v-4.564C76.314,133.532,75.236,132.58,73.332,132.58Zm-.35,6.706c-1.176,0-1.862-.532-1.862-1.386,0-.756.462-1.316,1.89-1.316h2.31v1.2A2.356,2.356,0,0,1,72.982,139.286Zm6.538-8.26a.714.714,0,0,0,.728-.728.706.706,0,0,0-.728-.686.707.707,0,1,0,0,1.414Zm-.5,8.974h.994v-7.364h-.994Zm5.74.07c1.918,0,3.038-.826,3.038-2.1,0-2.828-4.774-1.33-4.774-3.318,0-.7.588-1.218,1.918-1.218a3.775,3.775,0,0,1,2.17.63l.434-.8a4.99,4.99,0,0,0-2.6-.686c-1.876,0-2.912.9-2.912,2.1,0,2.912,4.774,1.4,4.774,3.318,0,.728-.574,1.2-1.974,1.2a4.448,4.448,0,0,1-2.618-.826l-.448.784A4.92,4.92,0,0,0,84.756,140.07Zm8.708-8.344v.91H92.148v.84h1.316V140h.994v-6.524H96.7v-.84H94.43v-.868c0-.91.448-1.386,1.3-1.386a1.684,1.684,0,0,1,1.092.364L97.16,130a2.334,2.334,0,0,0-1.47-.462A2.028,2.028,0,0,0,93.464,131.726Zm6.2-2.114a.707.707,0,1,0,.728.686A.706.706,0,0,0,99.666,129.612ZM99.162,140h.994v-7.364h-.994Zm11.312-3.682a3.509,3.509,0,0,0-3.57-3.738,3.547,3.547,0,0,0-3.6,3.738,3.893,3.893,0,0,0,6.706,2.548l-.56-.644a2.9,2.9,0,0,1-2.254.966,2.726,2.726,0,0,1-2.9-2.562h6.16C110.46,136.514,110.474,136.4,110.474,136.318Zm-3.57-2.884a2.561,2.561,0,0,1,2.618,2.45H104.3A2.558,2.558,0,0,1,106.9,133.434ZM112.5,140h.994V129.612H112.5Zm9.87-9.618a1.684,1.684,0,0,1,1.092.364L123.8,130a2.334,2.334,0,0,0-1.47-.462,2.028,2.028,0,0,0-2.226,2.184v.91H118.79v.84h1.316V140h.994v-6.524h2.24v-.84h-2.268v-.868C121.072,130.858,121.52,130.382,122.374,130.382Zm5.194,9.688a3.745,3.745,0,1,0-3.752-3.752A3.622,3.622,0,0,0,127.568,140.07Zm0-.882a2.874,2.874,0,1,1,2.73-2.87A2.7,2.7,0,0,1,127.568,139.188Zm6.72-5.11v-1.442h-.952V140h.994v-3.752c0-1.736.938-2.716,2.478-2.716.07,0,.154.014.238.014v-.966A2.777,2.777,0,0,0,134.288,134.078Zm10.906-1.5a4.676,4.676,0,0,0-3,.994l.448.742a3.751,3.751,0,0,1,2.45-.868c1.372,0,2.086.686,2.086,1.946v.448h-2.338c-2.114,0-2.842.952-2.842,2.086,0,1.274,1.022,2.142,2.688,2.142a2.765,2.765,0,0,0,2.534-1.218V140h.952v-4.564C148.176,133.532,147.1,132.58,145.194,132.58Zm-.35,6.706c-1.176,0-1.862-.532-1.862-1.386,0-.756.462-1.316,1.89-1.316h2.31v1.2A2.356,2.356,0,0,1,144.844,139.286Zm8.008.784c1.918,0,3.038-.826,3.038-2.1,0-2.828-4.774-1.33-4.774-3.318,0-.7.588-1.218,1.918-1.218a3.775,3.775,0,0,1,2.17.63l.434-.8a4.99,4.99,0,0,0-2.6-.686c-1.876,0-2.912.9-2.912,2.1,0,2.912,4.774,1.4,4.774,3.318,0,.728-.574,1.2-1.974,1.2a4.448,4.448,0,0,1-2.618-.826l-.448.784A4.92,4.92,0,0,0,152.852,140.07Z" transform="translate(1231 411)" fill="#707070"/>
  </g>
</svg>
