<svg xmlns="http://www.w3.org/2000/svg" width="223.943" height="36.567" viewBox="0 0 223.943 36.567">
  <g id="Grupo_73" data-name="Grupo 73" transform="translate(-324 -134)">
    <path id="Exclusão_1" data-name="Exclusão 1" d="M18,36A18,18,0,0,1,10.993,1.414,18,18,0,0,1,25.007,34.586,17.888,17.888,0,0,1,18,36ZM12.287,25.763h9.4v.658a1.808,1.808,0,0,0,1.8,1.787H24.52a1.8,1.8,0,0,0,1.788-1.787V20.777a2.43,2.43,0,0,0-.743-1.734l-.381-.405-.236-.549a7.249,7.249,0,0,0,3.532-6.231V8.285a.53.53,0,0,0-.276-.479L23.386,5.235a.537.537,0,0,0-.514,0l-4.7,2.571a.553.553,0,0,0-.29.476v3.64a7.109,7.109,0,0,0,.442,2.425H12.094a1.815,1.815,0,0,0-1.665,1.1L9.09,18.579l-.541.516a2.39,2.39,0,0,0-.827,1.824v5.5a1.772,1.772,0,0,0,1.751,1.787h1.041a1.779,1.779,0,0,0,1.772-1.786v-.658ZM24.52,27.122H23.487a.719.719,0,0,1-.712-.7v-.658h1.805a1.766,1.766,0,0,0,.64-.119v.776A.709.709,0,0,1,24.52,27.122Zm-14,0H9.482a.68.68,0,0,1-.673-.7v-.776a1.646,1.646,0,0,0,.615.119H11.2v.658A.694.694,0,0,1,10.517,27.122Zm-1.05-2.445h0a.662.662,0,0,1-.658-.642V20.919a1.3,1.3,0,0,1,.453-1l.006,0,.007-.006.482-.447H24.45l.329.345.013.01.013.01a1.321,1.321,0,0,1,.415.953V24a.68.68,0,0,1-.7.672H9.467Zm11.521-3.963a.544.544,0,0,0-.544.543v2.025a.544.544,0,0,0,.544.543h2.954a.543.543,0,0,0,.543-.543V21.256a.543.543,0,0,0-.543-.543Zm-10.928,0a.543.543,0,0,0-.543.543v2.025a.543.543,0,0,0,.543.543h2.954a.544.544,0,0,0,.544-.543V21.256a.544.544,0,0,0-.544-.543Zm5.051,1.928a.543.543,0,1,0,0,1.086h3.78a.543.543,0,1,0,0-1.086Zm0-1.516a.544.544,0,1,0,0,1.087h3.78a.544.544,0,0,0,0-1.087ZM23.4,22.738H21.532V21.8H23.4v.937Zm-10.928,0H10.6V21.8H12.47v.937Zm9.341-4.366H18.695a1.729,1.729,0,0,1,1.453-1.193,7.463,7.463,0,0,0,1.664,1.191Zm-4.238,0h-7.2l1.059-2.481a.737.737,0,0,1,.666-.453h6.727a8.429,8.429,0,0,0,.52.816,2.833,2.833,0,0,0-1.767,2.117Zm5.546-.612h0l-.433-.189a6.193,6.193,0,0,1-3.714-5.646V8.608L23.12,6.332l4.274,2.28v3.246a6.086,6.086,0,0,1-1.018,3.406A6.184,6.184,0,0,1,24,17.365c-.109.056-.229.112-.368.172l-.517.223Zm-1.937-6.378a.544.544,0,0,0-.353.13.542.542,0,0,0-.06.766l1.257,1.472a.6.6,0,0,0,.061.065l.008.007a.535.535,0,0,0,.191.108l.007,0,.011,0,.009,0,.007,0,.012,0,.014,0h.1a.463.463,0,0,0,.079-.006h.015l.009,0h.005a.55.55,0,0,0,.215-.1l.026-.022,2.948-2.4a.543.543,0,0,0-.343-.965.546.546,0,0,0-.343.122l-2.543,2.07L21.6,11.572A.543.543,0,0,0,21.183,11.381Z" transform="translate(324 134)" fill="#545c64"/>
    <g id="Grupo_72" data-name="Grupo 72">
      <path id="Caminho_33" data-name="Caminho 33" d="M13.827.462c4.257,0,7.689-1.551,9.933-4.356L19.6-7.656A6.828,6.828,0,0,1,14.157-4.95c-3.795,0-6.435-2.64-6.435-6.6s2.64-6.6,6.435-6.6A6.828,6.828,0,0,1,19.6-15.444l4.158-3.762c-2.244-2.8-5.676-4.356-9.933-4.356-7.326,0-12.7,4.983-12.7,12.012S6.5.462,13.827.462ZM38.016-18.183a7.751,7.751,0,0,0-5.379,1.947v-8.25h-6.27V0h6.27V-8.646c0-2.97,1.551-4.224,3.564-4.224,1.815,0,2.937,1.089,2.937,3.663V0h6.27V-10.23C45.408-15.774,42.207-18.183,38.016-18.183ZM67.881-8.91c0-5.907-4.29-9.273-9.57-9.273-5.643,0-9.834,3.828-9.834,9.207C48.477-3.63,52.6.3,58.971.3c3.4,0,5.907-.99,7.623-2.9l-3.3-3.432a5.731,5.731,0,0,1-4.125,1.551c-2.31,0-3.861-1.056-4.389-2.871h13C67.815-7.854,67.881-8.448,67.881-8.91Zm-9.537-4.818a3.534,3.534,0,0,1,3.663,3.069H54.681A3.557,3.557,0,0,1,58.344-13.728ZM79.926.3c4.059,0,7.161-1.815,8.382-4.917L83.457-7.1a3.877,3.877,0,0,1-3.564,2.409C77.715-4.686,76-6.2,76-8.976c0-2.706,1.716-4.224,3.894-4.224a3.877,3.877,0,0,1,3.564,2.409l4.851-2.475c-1.221-3.1-4.323-4.917-8.382-4.917-6.006,0-10.263,3.828-10.263,9.207C69.663-3.531,73.92.3,79.926.3ZM103.752,0h7.59L103.29-10.23l7.425-7.656H103.29l-6.4,6.237V-24.486h-6.27V0h6.27V-4.389L98.736-6.27Z" transform="translate(363 164)" fill="#545c64"/>
      <path id="Caminho_32" data-name="Caminho 32" d="M6.2-2.112v-8.58H18.15v-2.079H6.2v-8.217H19.6V-23.1H3.762V0H20.1V-2.112ZM31.152-17.49a11.021,11.021,0,0,0-7.062,2.343L25.146-13.4a8.842,8.842,0,0,1,5.775-2.046c3.234,0,4.917,1.617,4.917,4.587V-9.8H30.327c-4.983,0-6.7,2.244-6.7,4.917,0,3,2.409,5.049,6.336,5.049,2.871,0,4.917-1.089,5.973-2.871V0h2.244V-10.758C38.181-15.246,35.64-17.49,31.152-17.49ZM30.327-1.683c-2.772,0-4.389-1.254-4.389-3.267,0-1.782,1.089-3.1,4.455-3.1h5.445v2.838A5.553,5.553,0,0,1,30.327-1.683ZM49.2.165c4.521,0,7.161-1.947,7.161-4.95,0-6.666-11.253-3.135-11.253-7.821,0-1.65,1.386-2.871,4.521-2.871a8.9,8.9,0,0,1,5.115,1.485l1.023-1.881a11.763,11.763,0,0,0-6.138-1.617c-4.422,0-6.864,2.112-6.864,4.95,0,6.864,11.253,3.3,11.253,7.821,0,1.716-1.353,2.838-4.653,2.838A10.485,10.485,0,0,1,43.2-3.828L42.141-1.98A11.6,11.6,0,0,0,49.2.165Zm23.43-17.523L66.1-2.607,59.565-17.358H57.123L64.878-.033,64.119,1.65c-.99,2.178-2.046,2.9-3.6,2.9a4.335,4.335,0,0,1-3.168-1.32L56.265,4.983a5.94,5.94,0,0,0,4.224,1.584c2.475,0,4.323-1.089,5.775-4.488l8.679-19.437Z" transform="translate(473 164)" fill="#545c64"/>
    </g>
  </g>
</svg>
