<svg xmlns="http://www.w3.org/2000/svg" width="225.186" height="36.567" viewBox="0 0 225.186 36.567">
  <g id="Grupo_70" data-name="Grupo 70" transform="translate(-177 -17)">
    <g id="Grupo_5" data-name="Grupo 5" transform="translate(20 -2)">
      <g id="Grupo_4" data-name="Grupo 4" transform="translate(157 19)">
        <circle id="Elipse_1" data-name="Elipse 1" cx="18" cy="18" r="18" fill="#f2123c"/>
        <g id="transport_1_" data-name="transport (1)" transform="translate(7.722 5.171)">
          <g id="Grupo_2" data-name="Grupo 2" transform="translate(0.521 0.543)">
            <path id="Caminho_1" data-name="Caminho 1" d="M220.176,20.894a6.7,6.7,0,0,1-1.912-4.684V12.571L222.956,10l4.825,2.571v3.573a6.7,6.7,0,0,1-3.707,5.992c-.13.066-.264.127-.4.185l-.735.317-.651-.284A6.716,6.716,0,0,1,220.176,20.894Z" transform="translate(-208.062 -10)" fill="#f2123c"/>
            <path id="Caminho_2" data-name="Caminho 2" d="M291.757,346.55v2.417a1.239,1.239,0,0,1-1.239,1.239h-1.033a1.239,1.239,0,0,1-1.24-1.238h0v-1.178h2.272a1.239,1.239,0,0,0,1.24-1.239Z" transform="translate(-274.24 -328.261)" fill="#f2123c"/>
            <path id="Caminho_3" data-name="Caminho 3" d="M48.052,257.452v.31A1.239,1.239,0,0,1,46.812,259H31.775a1.239,1.239,0,0,1-1.24-1.238h0v-3.085a1.859,1.859,0,0,1,.656-1.417l.645-.6H47v.021l.471.5a1.859,1.859,0,0,1,.583,1.352Zm-1.818-.413v-2.024H43.28v2.024Zm-10.927,0v-2.024H32.353v2.024Z" transform="translate(-30.535 -239.473)" fill="#f2123c"/>
            <g id="Grupo_1" data-name="Grupo 1" transform="translate(0 9.162)">
              <path id="Caminho_4" data-name="Caminho 4" d="M217.456,211.716l.449,1.047h-6.641a2.3,2.3,0,0,1,2.292-2.293,6.716,6.716,0,0,0,2.112,1.46l.651.284.735-.317c.136-.058.27-.119.4-.185Z" transform="translate(-201.443 -208.738)" fill="#f2123c"/>
              <rect id="Ret창ngulo_2" data-name="Ret창ngulo 2" width="2.954" height="2.024" transform="translate(12.745 6.38)" fill="#f2123c"/>
              <path id="Caminho_5" data-name="Caminho 5" d="M64.072,178.59a6.707,6.707,0,0,0,1.225,1.732A2.3,2.3,0,0,0,63,182.615h-8.52l1.385-3.225a1.268,1.268,0,0,1,1.165-.768h6.973Z" transform="translate(-53.183 -178.59)" fill="#f2123c"/>
              <rect id="Ret창ngulo_3" data-name="Ret창ngulo 3" width="2.954" height="2.024" transform="translate(1.818 6.38)" fill="#f2123c"/>
              <path id="Caminho_6" data-name="Caminho 6" d="M34.046,347.81v1.157a1.239,1.239,0,0,1-1.239,1.239H31.774a1.239,1.239,0,0,1-1.24-1.238h0V346.55a1.239,1.239,0,0,0,1.239,1.239h2.273Z" transform="translate(-30.534 -337.423)" fill="#f2123c"/>
            </g>
            <path id="Caminho_31" data-name="Caminho 31" d="M15.1.174l4.6,2.454V7.766l-.749,1.279-1.219,2.013-2.113,1.28s-1.042-.012-1.133,0a10.593,10.593,0,0,1-2.011-1.074c-.07-.163-2.05-2.805-2.029-2.884s-.258-1.541-.228-1.8-.065-3.949-.065-3.949L13.705.675Z" fill="#4bb15b"/>
          </g>
          <g id="Grupo_3" data-name="Grupo 3" transform="translate(0 0)">
            <path id="Caminho_7" data-name="Caminho 7" d="M57.482,289.1H54.528a.543.543,0,0,1-.543-.543v-2.024a.543.543,0,0,1,.543-.543h2.954a.543.543,0,0,1,.543.543v2.024A.543.543,0,0,1,57.482,289.1Zm-2.41-1.087h1.867v-.937H55.072Z" transform="translate(-52.19 -270.448)" fill="#fff"/>
            <path id="Caminho_8" data-name="Caminho 8" d="M258.561,289.1h-2.954a.543.543,0,0,1-.543-.543v-2.024a.543.543,0,0,1,.543-.543h2.954a.543.543,0,0,1,.543.543v2.024A.543.543,0,0,1,258.561,289.1Zm-2.41-1.087h1.867v-.937h-1.867Z" transform="translate(-242.342 -270.448)" fill="#fff"/>
            <path id="Caminho_9" data-name="Caminho 9" d="M151.238,322.557h-3.78a.543.543,0,1,1,0-1.087h3.78a.543.543,0,0,1,0,1.087Z" transform="translate(-140.069 -304)" fill="#fff"/>
            <path id="Caminho_10" data-name="Caminho 10" d="M151.238,294.677h-3.78a.543.543,0,0,1,0-1.087h3.78a.543.543,0,0,1,0,1.087Z" transform="translate(-140.069 -277.635)" fill="#fff"/>
            <path id="Caminho_11" data-name="Caminho 11" d="M41.435,2.635,36.616.064a.538.538,0,0,0-.514,0L31.4,2.638a.55.55,0,0,0-.289.477V6.754a7.117,7.117,0,0,0,.441,2.425H25.324a1.817,1.817,0,0,0-1.665,1.1L22.32,13.407l-.541.516a2.391,2.391,0,0,0-.827,1.825v5.5A1.77,1.77,0,0,0,22.7,23.037h1.041a1.78,1.78,0,0,0,1.772-1.787h0v-.658h9.4v.658a1.8,1.8,0,0,0,1.8,1.787H37.75a1.793,1.793,0,0,0,1.788-1.787V15.606a2.415,2.415,0,0,0-.742-1.734l-.38-.4-.236-.549a7.222,7.222,0,0,0,3.532-6.231V3.114A.533.533,0,0,0,41.435,2.635Zm-8.058,9.373A7.492,7.492,0,0,0,35.046,13.2H31.925A1.728,1.728,0,0,1,33.378,12.008Zm-8.719-1.289a.737.737,0,0,1,.666-.453h6.727a8.213,8.213,0,0,0,.52.817A2.846,2.846,0,0,0,30.8,13.2H23.6Zm-2.619,5.029a1.3,1.3,0,0,1,.453-1c.006-.005.007,0,.013-.01l.483-.448H37.681l.329.345c.008.008.018.013.026.02a1.316,1.316,0,0,1,.415.953v3.227a.681.681,0,0,1-.7.672H22.713a.658.658,0,0,1-.673-.641c0-.01,0-.02,0-.03Zm2.391,5.5a.692.692,0,0,1-.683.7H22.713a.682.682,0,0,1-.673-.7v-.776a1.66,1.66,0,0,0,.673.118H24.43Zm13.32.7H36.718a.714.714,0,0,1-.712-.7v-.658H37.75a1.8,1.8,0,0,0,.7-.118v.776A.705.705,0,0,1,37.75,21.95ZM40.625,6.687a6.114,6.114,0,0,1-1.018,3.407,6.176,6.176,0,0,1-2.372,2.1h0c-.115.058-.238.115-.37.171l-.518.224-.434-.189A6.19,6.19,0,0,1,32.2,6.754V3.436L36.35,1.161l4.275,2.279Z" transform="translate(-20.952 0)" fill="#fff"/>
            <g id="Grupo_11" data-name="Grupo 11">
              <path id="Caminho_12" data-name="Caminho 12" d="M260.458,116.851a.542.542,0,0,1-.414-.191l-1.269-1.486a.544.544,0,0,1,.827-.706l1.269,1.486a.543.543,0,0,1-.413.9Z" transform="translate(-245.729 -108.068)" fill="#fff"/>
              <path id="Caminho_13" data-name="Caminho 13" d="M282.538,100.871a.543.543,0,0,1-.343-.965l2.955-2.4a.543.543,0,0,1,.686.843l-2.955,2.4A.541.541,0,0,1,282.538,100.871Z" transform="translate(-267.808 -92.088)" fill="#fff"/>
            </g>
          </g>
        </g>
      </g>
      <path id="Caminho_34" data-name="Caminho 34" d="M13.827.462c4.257,0,7.689-1.551,9.933-4.356L19.6-7.656A6.828,6.828,0,0,1,14.157-4.95c-3.795,0-6.435-2.64-6.435-6.6s2.64-6.6,6.435-6.6A6.828,6.828,0,0,1,19.6-15.444l4.158-3.762c-2.244-2.8-5.676-4.356-9.933-4.356-7.326,0-12.7,4.983-12.7,12.012S6.5.462,13.827.462ZM38.016-18.183a7.751,7.751,0,0,0-5.379,1.947v-8.25h-6.27V0h6.27V-8.646c0-2.97,1.551-4.224,3.564-4.224,1.815,0,2.937,1.089,2.937,3.663V0h6.27V-10.23C45.408-15.774,42.207-18.183,38.016-18.183ZM67.881-8.91c0-5.907-4.29-9.273-9.57-9.273-5.643,0-9.834,3.828-9.834,9.207C48.477-3.63,52.6.3,58.971.3c3.4,0,5.907-.99,7.623-2.9l-3.3-3.432a5.731,5.731,0,0,1-4.125,1.551c-2.31,0-3.861-1.056-4.389-2.871h13C67.815-7.854,67.881-8.448,67.881-8.91Zm-9.537-4.818a3.534,3.534,0,0,1,3.663,3.069H54.681A3.557,3.557,0,0,1,58.344-13.728ZM79.926.3c4.059,0,7.161-1.815,8.382-4.917L83.457-7.1a3.877,3.877,0,0,1-3.564,2.409C77.715-4.686,76-6.2,76-8.976c0-2.706,1.716-4.224,3.894-4.224a3.877,3.877,0,0,1,3.564,2.409l4.851-2.475c-1.221-3.1-4.323-4.917-8.382-4.917-6.006,0-10.263,3.828-10.263,9.207C69.663-3.531,73.92.3,79.926.3ZM103.752,0h7.59L103.29-10.23l7.425-7.656H103.29l-6.4,6.237V-24.486h-6.27V0h6.27V-4.389L98.736-6.27Zm13.695-2.112v-8.58h11.946v-2.079H117.447v-8.217h13.4V-23.1H115V0H131.34V-2.112ZM142.4-17.49a11.021,11.021,0,0,0-7.062,2.343l1.056,1.749a8.842,8.842,0,0,1,5.775-2.046c3.234,0,4.917,1.617,4.917,4.587V-9.8H141.57c-4.983,0-6.7,2.244-6.7,4.917,0,3,2.409,5.049,6.336,5.049,2.871,0,4.917-1.089,5.973-2.871V0h2.244V-10.758C149.424-15.246,146.883-17.49,142.4-17.49ZM141.57-1.683c-2.772,0-4.389-1.254-4.389-3.267,0-1.782,1.089-3.1,4.455-3.1h5.445v2.838A5.553,5.553,0,0,1,141.57-1.683ZM160.446.165c4.521,0,7.161-1.947,7.161-4.95,0-6.666-11.253-3.135-11.253-7.821,0-1.65,1.386-2.871,4.521-2.871a8.9,8.9,0,0,1,5.115,1.485l1.023-1.881a11.763,11.763,0,0,0-6.138-1.617c-4.422,0-6.864,2.112-6.864,4.95,0,6.864,11.253,3.3,11.253,7.821,0,1.716-1.353,2.838-4.653,2.838a10.485,10.485,0,0,1-6.171-1.947L153.384-1.98A11.6,11.6,0,0,0,160.446.165Zm23.43-17.523L177.342-2.607l-6.534-14.751h-2.442L176.121-.033l-.759,1.683c-.99,2.178-2.046,2.9-3.6,2.9a4.335,4.335,0,0,1-3.168-1.32l-1.089,1.749a5.94,5.94,0,0,0,4.224,1.584c2.475,0,4.323-1.089,5.775-4.488l8.679-19.437Z" transform="translate(196 49)" fill="#fff"/>
    </g>
  </g>
</svg>
