<svg id="Grupo_59" data-name="Grupo 59" xmlns="http://www.w3.org/2000/svg" width="84" height="55.216" viewBox="0 0 84 55.216">
  <g id="Grupo_12" data-name="Grupo 12">
    <path id="Caminho_12" data-name="Caminho 12" d="M287.315,154.97a8.573,8.573,0,0,1-6.541-3.013l-20.07-23.5a8.6,8.6,0,0,1,13.077-11.164l20.069,23.5a8.6,8.6,0,0,1-6.532,14.177Z" transform="translate(-258.646 -99.754)" fill="#4bb15b"/>
    <path id="Caminho_13" data-name="Caminho 13" d="M290.594,152.6a8.6,8.6,0,0,1-5.429-15.263l46.742-38.025a8.6,8.6,0,0,1,10.848,13.336l-46.74,38.025A8.562,8.562,0,0,1,290.594,152.6Z" transform="translate(-261.926 -97.38)" fill="#4bb15b"/>
  </g>
</svg>
