<svg height="512pt" viewBox="0 0 512 512" width="512pt" xmlns="http://www.w3.org/2000/svg"><path d="m309.320312 127.007812v166.050782h-53.320312l-20.015625-146.53125 20.015625-146.527344 110.203125 127.007812zm0 0" fill="#d10050"/><path d="m202.679688 293.058594v-166.050782h-56.882813l110.203125-127.007812v293.058594zm0 0" fill="#ff4a4a"/><path d="m432.699219 352.253906c-2.09375-49.78125-43.097657-89.503906-93.394531-89.503906-15.878907 0-30.828126 3.96875-43.925782 10.953125-8.832031-19.101563-22.484375-35.515625-39.378906-47.714844l-20.015625 156.011719 20.015625 130h176.117188c44.117187 0 79.882812-35.765625 79.882812-79.882812 0-43.921876-35.449219-79.550782-79.300781-79.863282zm0 0" fill="#efe2dd"/><path d="m184.828125 203c-67.238281 0-121.746094 54.507812-121.746094 121.746094 0 9.863281 1.179688 19.449218 3.394531 28.632812-37.730468 6.378906-66.476562 39.191406-66.476562 78.738282 0 44.117187 35.765625 79.882812 79.878906 79.882812h176.121094v-286.015625c-20.019531-14.453125-44.59375-22.984375-71.171875-22.984375zm0 0" fill="#fff5f5"/></svg>